<?xml version="1.0" standalone="no"?>
<!DOCTYPE svg PUBLIC "-//W3C//DTD SVG 1.1//EN" "http://www.w3.org/Graphics/SVG/1.1/DTD/svg11.dtd" >
<svg xmlns="http://www.w3.org/2000/svg">
<metadata></metadata>
<defs>
<font id="eras_bd_btbold" horiz-adv-x="1280" >
<font-face units-per-em="2048" ascent="1638" descent="-410" />
<missing-glyph horiz-adv-x="641" />
<glyph horiz-adv-x="0" />
<glyph unicode="&#xd;" horiz-adv-x="641" />
<glyph unicode=" "  horiz-adv-x="641" />
<glyph unicode="&#x09;" horiz-adv-x="641" />
<glyph unicode="&#xa0;" horiz-adv-x="641" />
<glyph unicode="!" horiz-adv-x="739" d="M127 0l18 365h437l-21 -365h-434zM172 461l6 431q1 41 1.5 91.5t0.5 159.5q0 84 -0.5 128.5t-1.5 83.5l463 1q-18 -151 -32 -285.5t-21 -238.5l-23 -371h-393z" />
<glyph unicode="&#x22;" horiz-adv-x="713" d="M76 877v561h219v-561h-219zM416 877v561h223v-561h-223z" />
<glyph unicode="#" horiz-adv-x="1575" d="M23 381l86 231h270l82 230h-283l86 231h279l141 393h250l-139 -393h235l141 393h250l-139 -393h270l-86 -231h-268l-80 -230h277l-84 -231h-275l-141 -393h-250l139 393h-235l-141 -393h-250l139 393h-274zM625 610h245l82 232h-245z" />
<glyph unicode="$" d="M186 420q110 -23 178 -33t113 -10q64 0 95.5 17.5t31.5 51.5q0 42 -104 128q-35 29 -55 46q-138 121 -176 184.5t-38 139.5q0 119 75 200.5t214 112.5l4 99h279v-96q59 -10 113 -25t106 -37l35 -280q-131 47 -192.5 63t-102.5 16q-35 0 -58.5 -21t-23.5 -52 q0 -52 120 -146q29 -23 45 -36q139 -114 183.5 -183t44.5 -147q0 -111 -80.5 -194.5t-230.5 -127.5l-4 -104h-283l4 96q-68 3 -131.5 14t-128.5 31z" />
<glyph unicode="%" horiz-adv-x="1839" d="M80 952q0 200 101 316t274 116q167 0 260.5 -94.5t93.5 -263.5q0 -219 -105.5 -343t-289.5 -124q-160 0 -247 102.5t-87 290.5zM322 932q0 -83 25.5 -124.5t76.5 -41.5q65 0 104 66.5t39 179.5q0 83 -25 124.5t-75 41.5q-66 0 -105.5 -67t-39.5 -179zM459 -14l702 1398 h217l-706 -1398h-213zM1032 375q0 200 101 316t274 116q167 0 261.5 -95t94.5 -263q0 -219 -106 -343t-291 -124q-160 0 -247 102t-87 291zM1276 354q0 -83 25 -124.5t75 -41.5q66 0 105 66.5t39 179.5q0 83 -25 124.5t-76 41.5q-65 0 -104 -66.5t-39 -179.5z" />
<glyph unicode="&#x26;" horiz-adv-x="1507" d="M43 412q0 157 93.5 276t266.5 182q-29 58 -44 108.5t-15 94.5q0 146 121.5 228.5t337.5 82.5q66 0 141.5 -9t163.5 -27l27 -310q-74 22 -134 32.5t-106 10.5q-65 0 -99 -25t-34 -73q0 -38 33.5 -100t109.5 -166l133 -182q20 46 29.5 87t9.5 80h314q0 -129 -33 -239.5 t-101 -206.5l189 -256h-428l-51 68q-80 -51 -177 -76t-219 -25q-242 0 -385 121t-143 324zM424 438q0 -85 55 -139.5t144 -54.5q46 0 90.5 13t87.5 40l-242 326q-71 -30 -103 -73.5t-32 -111.5z" />
<glyph unicode="'" horiz-adv-x="371" d="M76 877v561h219v-561h-219z" />
<glyph unicode="(" horiz-adv-x="725" d="M137 424q0 237 44 487t130 498h334q-66 -230 -99.5 -475t-33.5 -496q0 -198 15.5 -393t45.5 -387h-333q-52 206 -77.5 396.5t-25.5 369.5z" />
<glyph unicode=")" horiz-adv-x="725" d="M72 -342q66 230 99.5 475t33.5 496q0 198 -15.5 393t-46.5 387h332q52 -214 78.5 -405t26.5 -361q0 -238 -45 -487t-132 -498h-331z" />
<glyph unicode="*" horiz-adv-x="1151" d="M203 1032l102 213l199 -112l-4 223h231l-20 -223l215 108l86 -227l-238 -70l168 -178l-180 -135l-158 213l-164 -213l-176 149l178 164z" />
<glyph unicode="+" horiz-adv-x="1706" d="M254 496v231h481v494h238v-494h479v-231h-479v-496h-238v496h-481z" />
<glyph unicode="," horiz-adv-x="639" d="M-29 -252l183 539h442l-311 -539h-314z" />
<glyph unicode="-" horiz-adv-x="692" d="M106 385l19 303h487l-18 -303h-488z" />
<glyph unicode="." horiz-adv-x="639" d="M115 0l20 389h389l-18 -389h-391z" />
<glyph unicode="/" horiz-adv-x="590" d="M-57 -190l450 1546h215l-450 -1546h-215z" />
<glyph unicode="0" d="M66 618q0 357 158.5 561.5t434.5 204.5q271 0 414.5 -165t143.5 -478q0 -361 -162.5 -565.5t-448.5 -204.5q-260 0 -400 168t-140 479zM494 623q0 -163 30.5 -237.5t96.5 -74.5q80 0 122.5 116t42.5 335q0 143 -30.5 211.5t-93.5 68.5q-79 0 -123.5 -111t-44.5 -308z" />
<glyph unicode="1" d="M227 838l25 370l250 148h421q-9 -124 -17 -251t-15 -267l-19 -363q-2 -47 -10 -276q-3 -124 -6 -199h-428q11 142 17 234.5t8 132.5l28 626z" />
<glyph unicode="2" d="M31 0l20 334q307 206 494.5 393t187.5 274q0 47 -46 70t-138 23q-75 0 -183 -19t-243 -55l55 315q145 25 272 37t232 12q246 0 376 -90t130 -260q0 -141 -143 -315.5t-459 -419.5h540l-12 -299h-1083z" />
<glyph unicode="3" d="M55 383q152 -53 259.5 -76.5t191.5 -23.5q105 0 163 40t58 113q0 69 -62 102t-190 33q-38 0 -193 -11q-27 -2 -40 -3l12 317q53 -5 94.5 -7.5t75.5 -2.5q134 0 197 31.5t63 97.5q0 57 -41 80t-149 23q-115 0 -203.5 -15t-169.5 -47l63 320q122 17 230.5 26t203.5 9 q291 0 428.5 -77t137.5 -239q0 -144 -97.5 -232t-293.5 -122q203 -16 299 -92t96 -221q0 -205 -179 -319t-505 -114q-118 0 -226 16.5t-210 49.5z" />
<glyph unicode="4" d="M47 348l19 371q84 100 185 242t267 395h512l-37 -717h240l-16 -291h-238l-18 -348h-377l18 348h-555zM399 639h248l21 432q-45 -101 -111 -207t-158 -225z" />
<glyph unicode="5" d="M78 379q125 -54 223 -79.5t178 -25.5q104 0 161.5 43t57.5 119q0 87 -71.5 124.5t-245.5 37.5q-75 0 -150 -9t-151 -28l65 795h1026l-14 -291h-598l-12 -211q14 1 47.5 4.5t52.5 3.5q276 0 417.5 -100.5t141.5 -296.5q0 -233 -181 -364.5t-505 -131.5q-84 0 -184 14 t-221 44z" />
<glyph unicode="6" d="M49 459q0 187 100 398.5t328 498.5h496q-267 -295 -399 -513t-132 -366q0 -95 48 -145.5t139 -50.5q87 0 133.5 45t46.5 129q0 89 -48 130.5t-151 41.5q-22 0 -33.5 -0.5t-21.5 -1.5l139 264q8 0 24.5 1t24.5 1q235 0 355.5 -100t120.5 -295q0 -251 -157 -388t-444 -137 q-271 0 -420 128t-149 360z" />
<glyph unicode="7" d="M98 1055l19 301h1016v-334l-519 -1022h-479l559 1063h-18q-227 4 -336 4q-40 0 -100 -3t-142 -9z" />
<glyph unicode="8" d="M41 373q0 121 71.5 206.5t206.5 127.5q-102 54 -146 122.5t-44 171.5q0 175 146.5 280t394.5 105q249 0 385.5 -97t136.5 -273q0 -108 -55 -185.5t-162 -123.5q116 -34 177.5 -111.5t61.5 -189.5q0 -207 -158 -321t-448 -114q-270 0 -418.5 105.5t-148.5 296.5zM440 428 q0 -77 47 -116.5t140 -39.5q89 0 139.5 40t50.5 110q0 76 -47 114.5t-141 38.5q-90 0 -139.5 -38.5t-49.5 -108.5zM500 991q0 -64 40 -95.5t122 -31.5q88 0 130 33.5t42 103.5q0 59 -43.5 90t-124.5 31q-78 0 -122 -35t-44 -96z" />
<glyph unicode="9" d="M55 860q0 251 157 387.5t443 136.5q272 0 421 -127.5t149 -359.5q0 -188 -100 -399t-328 -498h-496q267 295 398.5 513t131.5 366q0 93 -48 144.5t-136 51.5q-87 0 -134.5 -45.5t-47.5 -128.5q0 -90 47 -131t150 -41q22 0 33.5 0.5t20.5 1.5l-136 -264q-9 0 -25 -1 t-25 -1q-234 0 -354.5 100t-120.5 295z" />
<glyph unicode=":" horiz-adv-x="739" d="M158 0l20 375h387l-20 -375h-387zM188 645l19 375h387l-19 -375h-387z" />
<glyph unicode=";" horiz-adv-x="739" d="M-6 -252l182 539h442l-311 -539h-313zM193 629l20 391h387l-18 -391h-389z" />
<glyph unicode="&#x3c;" horiz-adv-x="1706" d="M264 494v233l1178 487v-253l-854 -351l854 -348v-254z" />
<glyph unicode="=" horiz-adv-x="1706" d="M254 272v230h1198v-230h-1198zM254 719v231h1198v-231h-1198z" />
<glyph unicode="&#x3e;" horiz-adv-x="1706" d="M264 8v254l854 348l-854 351v253l1178 -487v-233z" />
<glyph unicode="?" horiz-adv-x="1143" d="M106 1026l64 340q112 16 216.5 24.5t201.5 8.5q264 0 402 -88t138 -256q0 -157 -244 -361q-21 -17 -32 -26q-68 -58 -90 -102.5t-25 -110.5h-397v16q0 91 33.5 161t115.5 146q11 10 31 28q150 138 150 191q0 39 -46 61.5t-126 22.5q-78 0 -167 -12t-225 -43zM297 0 l16 365h428l-14 -365h-430z" />
<glyph unicode="@" horiz-adv-x="2048" d="M82 520q0 169 53 320.5t156 277.5q148 183 359.5 278t467.5 95q170 0 320 -46t260 -132q136 -107 203 -243t67 -306q0 -167 -65.5 -307t-190.5 -240q-69 -56 -154 -85.5t-176 -29.5q-106 0 -161 40t-60 120q-56 -82 -126.5 -120t-168.5 -38q-163 0 -247 87.5t-84 257.5 q0 241 141.5 404t349.5 163q77 0 134 -30.5t95 -92.5l52 92h206l-153 -610q0 -2 -1 -6q-3 -18 -3 -27q0 -30 16 -44.5t47 -14.5q137 0 240.5 143.5t103.5 335.5q0 239 -179.5 390t-467.5 151q-148 0 -274 -36.5t-230 -109.5q-155 -110 -239 -274.5t-84 -356.5 q0 -302 203 -481.5t544 -179.5q164 0 316 47.5t280 138.5l97 -135q-156 -117 -329 -175t-364 -58q-192 0 -354.5 49t-288.5 145q-157 122 -234 281.5t-77 361.5zM778 444q0 -83 35 -128.5t98 -45.5q84 0 148 59t88 158l51 209q-9 76 -50 116t-110 40q-103 0 -181.5 -121.5 t-78.5 -286.5z" />
<glyph unicode="A" horiz-adv-x="1511" d="M-104 0l602 1192q11 22 27 59.5t42 104.5l539 -1q5 -37 13 -72.5t20 -70.5l397 -1212h-444q-3 25 -8.5 54t-14.5 65l-74 307h-485l-113 -270q-15 -38 -28.5 -77.5t-24.5 -78.5h-448zM627 735h293l-111 432z" />
<glyph unicode="B" horiz-adv-x="1354" d="M74 0q32 267 50 609.5t22 746.5h681q228 0 331.5 -73.5t103.5 -233.5q0 -138 -84 -227t-238 -113q173 -16 257.5 -96t84.5 -228q0 -187 -127 -286t-367 -99h-714zM516 258h158q109 0 161 40.5t52 125.5q0 77 -44.5 115.5t-133.5 38.5h-185l-6 -112q-1 -21 -1.5 -49 t-0.5 -89v-70zM537 821h92q117 0 169 34.5t52 111.5q0 74 -39 103.5t-139 29.5h-119q-1 -10 -3.5 -54t-4.5 -77z" />
<glyph unicode="C" horiz-adv-x="1341" d="M70 647q0 350 212.5 543.5t598.5 193.5q96 0 193 -10.5t196 -32.5l16 -311q-82 28 -164 41.5t-161 13.5q-215 0 -335 -113.5t-120 -316.5q0 -189 106 -279.5t328 -90.5q80 0 159.5 10.5t164.5 32.5l-47 -318q-90 -20 -184.5 -30.5t-192.5 -10.5q-376 0 -573 173.5 t-197 504.5z" />
<glyph unicode="D" horiz-adv-x="1532" d="M76 0q28 256 46 601t24 755h657q196 0 281.5 -21t150.5 -69q112 -84 169.5 -219.5t57.5 -313.5q0 -358 -199.5 -545.5t-580.5 -187.5h-606zM526 313h43q135 0 199 14.5t113 49.5q72 51 109.5 137t37.5 201q0 169 -62 248t-194 79h-219l-23 -491q-1 -32 -2.5 -95 t-1.5 -143z" />
<glyph unicode="E" horiz-adv-x="1270" d="M76 0q27 250 44 589.5t23 766.5h1090l-16 -314q-82 4 -145 6.5t-85 2.5l-430 -1q-8 -78 -10 -116t-2 -70v-26h352q69 0 123 2t100 6l-16 -319q-34 3 -72 4t-117 1h-94h-293q-6 -42 -9 -82t-3 -81q0 -24 0.5 -36t1.5 -21q59 -7 127.5 -10t167.5 -3q104 0 199 4t178 12 l-16 -315h-1098z" />
<glyph unicode="F" horiz-adv-x="1155" d="M76 0q27 250 44 589.5t23 766.5h1006l-14 -313q-81 3 -145.5 5.5t-86.5 2.5l-346 -1q-8 -78 -10 -116t-2 -70v-26h268q98 0 142.5 1.5t80.5 6.5l-16 -319q-34 3 -72 4t-117 1h-94h-209l-12 -264v-12q-8 -172 -8 -256h-432z" />
<glyph unicode="G" horiz-adv-x="1507" d="M68 631q0 358 233 558t653 200q88 0 193.5 -10.5t232.5 -30.5l23 -318q-132 30 -225.5 43.5t-167.5 13.5q-242 0 -377 -122.5t-135 -339.5q0 -162 97 -252t271 -90q37 0 73 4.5t73 14.5q5 46 7.5 86.5t2.5 76.5v35h-168l16 295h570q-17 -183 -26 -342.5t-9 -276.5 q0 -46 0.5 -77t1.5 -62q-134 -34 -265 -51t-261 -17q-392 0 -602.5 171.5t-210.5 490.5z" />
<glyph unicode="H" horiz-adv-x="1612" d="M76 0q28 256 46 601t24 755h435q-7 -64 -13 -134t-11 -147l-10 -198q40 0 125 -1.5t131 -1.5q44 0 138 1.5t144 1.5l9 133q3 68 4.5 134t1.5 130v82h436q-12 -93 -18 -159.5t-9 -123.5l-39 -772q-2 -41 -3 -77.5t-1 -73.5q0 -20 1 -70.5t1 -79.5h-438q13 146 18 206.5 t7 78.5l14 272q-67 3 -134.5 4.5t-135.5 1.5t-134.5 -1.5t-133.5 -4.5l-7 -117q-6 -115 -9.5 -223.5t-5.5 -216.5h-433z" />
<glyph unicode="I" horiz-adv-x="666" d="M80 0q28 256 46 601t24 755h436q-6 -49 -11 -109.5t-12 -171.5l-35 -635q-4 -88 -7 -198t-5 -242h-436z" />
<glyph unicode="J" horiz-adv-x="985" d="M-16 8v332q65 -21 125 -32t112 -11q131 0 185 68t65 282l21 410q3 75 4.5 149t1.5 150h425q-11 -118 -17 -207t-9 -168l-22 -548q-10 -247 -137.5 -355.5t-405.5 -108.5q-87 0 -174.5 10t-173.5 29z" />
<glyph unicode="K" horiz-adv-x="1432" d="M74 0q28 256 46 601t24 755h434q-9 -75 -14.5 -144.5t-8.5 -135.5l-33 -636q-6 -121 -9.5 -228t-5.5 -212h-433zM557 711l311 467q23 34 49.5 79t57.5 99h495l-469 -641l416 -715h-499q-16 49 -38.5 100t-52.5 105z" />
<glyph unicode="L" horiz-adv-x="1102" d="M76 0q27 250 44 589.5t23 766.5h443q-27 -205 -41.5 -431.5t-14.5 -461.5q0 -49 4 -146q0 -4 1 -6q57 -5 108.5 -7.5t99.5 -2.5q86 0 169.5 3.5t191.5 12.5l-17 -317h-1011z" />
<glyph unicode="M" horiz-adv-x="1851" d="M51 0q38 249 68.5 594t50.5 762h567q4 -28 9.5 -60.5t13.5 -76.5l143 -734l219 689q19 57 31.5 99.5t22.5 82.5h579q-6 -106 -11 -241q-1 -29 -1 -40l-27 -774q0 -10 -1 -38t-1 -46q0 -43 1 -98t5 -119h-401q7 53 12.5 112t7.5 121l25 472q1 15 4 128t6 199l-295 -868 q-20 -60 -30.5 -95t-18.5 -69h-333q-4 30 -10 66.5t-15 78.5l-187 879l-55 -662q-5 -60 -10 -145.5t-11 -216.5h-358z" />
<glyph unicode="N" horiz-adv-x="1612" d="M76 0q19 152 36 427t44 929h520l454 -969l21 657v7q4 120 4 180q0 22 -1 63.5t-1 61.5h383q-12 -93 -18 -159.5t-9 -123.5l-39 -772q-2 -41 -3 -77.5t-1 -73.5q0 -20 1 -70.5t1 -79.5h-534q-80 188 -155 355q-5 12 -7 16l-276 590l-25 -540q-3 -71 -7 -260 q-2 -104 -4 -161h-384z" />
<glyph unicode="O" horiz-adv-x="1741" d="M68 651q0 343 213 538t587 195q388 0 595.5 -175.5t207.5 -503.5q0 -346 -215.5 -540t-603.5 -194q-373 0 -578.5 179t-205.5 501zM506 678q0 -197 91 -295t273 -98q173 0 268 108t95 305q0 183 -92.5 278t-270.5 95q-172 0 -268 -103.5t-96 -289.5z" />
<glyph unicode="P" horiz-adv-x="1255" d="M76 0q28 256 46 601t24 755h604q139 0 198.5 -9.5t106.5 -31.5q78 -38 124 -125t46 -199q0 -217 -129 -348t-340 -131q-15 0 -35.5 1.5t-46.5 4.5l-92 260q120 0 178.5 41t58.5 125q0 69 -42.5 107.5t-119.5 38.5q-30 0 -98 -8l-6 -1l-31 -641q-4 -105 -7 -215t-6 -225 h-433z" />
<glyph unicode="Q" horiz-adv-x="1741" d="M68 651q0 343 213 538t587 195q379 0 590 -172t211 -477q0 -148 -51 -258t-152 -180q67 6 138.5 18t146.5 29l-49 -305q-187 -35 -383 -52.5t-397 -17.5q-424 0 -639 172t-215 510zM506 678q0 -197 91 -295t273 -98q173 0 268 108t95 305q0 183 -92.5 278t-270.5 95 q-172 0 -268 -103.5t-96 -289.5z" />
<glyph unicode="R" horiz-adv-x="1350" d="M76 0q28 256 46 601t24 755h655q133 0 197.5 -9t113.5 -30q79 -34 125.5 -113t46.5 -178q0 -149 -61.5 -249.5t-180.5 -145.5l238 -631h-446l-252 778h10q146 0 217.5 41t71.5 125q0 72 -53.5 109t-159.5 37q-27 0 -54.5 -2.5t-56.5 -6.5l-35 -641q-4 -86 -7.5 -197 t-5.5 -243h-433z" />
<glyph unicode="S" horiz-adv-x="1087" d="M45 358q121 -41 219.5 -60t188.5 -19q63 0 101 24t38 64q0 56 -147 169q-24 19 -37 29q-1 1 -3 2q-329 259 -329 443q0 173 144.5 271.5t402.5 98.5q71 0 158 -10t200 -33l25 -307q-110 29 -178.5 41t-116.5 12q-87 0 -130.5 -23.5t-43.5 -70.5q0 -54 161 -177 q28 -22 44 -34q173 -134 236.5 -226.5t63.5 -195.5q0 -189 -144 -286t-427 -97q-83 0 -182 11.5t-213 33.5z" />
<glyph unicode="T" horiz-adv-x="1200" d="M10 1042l17 314h1196l-17 -313q-87 9 -170.5 13.5t-165.5 4.5h-47l-37 -619q-3 -62 -4.5 -125t-1.5 -129q0 -76 0.5 -115t1.5 -73h-438q20 167 36 437t27 624q-126 -2 -225.5 -6.5t-171.5 -12.5z" />
<glyph unicode="U" horiz-adv-x="1479" d="M96 383q0 49 15.5 372.5t17.5 599.5l430 1q-8 -68 -14 -139t-8 -141l-27 -525q-1 -11 -1.5 -25t-0.5 -41q0 -101 51.5 -149.5t157.5 -48.5q117 0 173 58.5t62 189.5l23 475q5 99 6.5 151.5t1.5 98.5q0 39 -0.5 59t-1.5 37h434q-8 -64 -14.5 -133t-11.5 -149l-25 -472 q-2 -29 -4 -83q-8 -203 -45 -290q-55 -124 -213.5 -191t-401.5 -67q-286 0 -445 109t-159 303z" />
<glyph unicode="V" horiz-adv-x="1460" d="M-27 1356h450q6 -37 14.5 -77t21.5 -83l231 -809l336 764q17 40 37 92t41 113h450l-591 -1192q-22 -42 -40 -83.5t-32 -80.5h-488q-6 21 -20.5 70.5t-22.5 75.5z" />
<glyph unicode="W" horiz-adv-x="2015" d="M41 1356h383q0 -38 3 -80t9 -88l109 -813l190 755q12 47 24 104t23 122h516q2 -55 5 -96.5t8 -72.5l135 -812l180 755l12 51q27 119 35 175h367l-340 -1192q-15 -51 -24 -91.5t-14 -72.5h-519q0 42 -15 139q-1 8 -2 13l-125 866l-210 -845q-10 -39 -20 -81.5t-22 -91.5 h-505q0 24 -3.5 56.5t-11.5 88.5z" />
<glyph unicode="X" horiz-adv-x="1356" d="M-88 0l526 717l-405 639h487q12 -30 23 -54.5t22 -45.5l137 -267l138 221q12 19 27 47t51 99h454l-463 -645l459 -711h-489q-18 39 -35 73t-29 56l-172 303l-178 -278q-32 -49 -52.5 -86t-33.5 -68h-467z" />
<glyph unicode="Y" horiz-adv-x="1171" d="M-39 1356h471q13 -53 22.5 -84t18.5 -58l123 -348l149 317q10 20 25.5 55t50.5 118h443l-482 -842l-14 -340q0 -5 -1 -22t-1 -29q0 -25 3 -93q1 -20 1 -30h-427q5 72 10 147.5t5 81.5l15 291z" />
<glyph unicode="Z" horiz-adv-x="1270" d="M37 0l16 322l676 739h-426q-16 0 -48 -2t-126 -8l16 305h1078l-17 -312l-676 -741h406q21 0 79.5 3t153.5 9l-18 -315h-1114z" />
<glyph unicode="[" horiz-adv-x="725" d="M55 -403l3 23q22 199 24 243l61 1198q3 48 3.5 87.5t0.5 78.5q0 22 -1 74.5t-1 82.5h596l-12 -276h-256l-67 -1233h256l-13 -278h-594z" />
<glyph unicode="\" horiz-adv-x="590" d="M-23 1356h216l450 -1546h-213z" />
<glyph unicode="]" horiz-adv-x="725" d="M-37 -403l12 278h256l68 1233h-256l12 276h594l-2 -23q-22 -199 -24 -243l-62 -1198q-2 -48 -3 -87.5t-1 -78.5q0 -22 1 -75t1 -82h-596z" />
<glyph unicode="^" horiz-adv-x="2048" d="M414 899l465 563h288l465 -563h-264l-344 342l-346 -342h-264z" />
<glyph unicode="_" horiz-adv-x="1024" d="M0 -244h1024v-239h-1024v239z" />
<glyph unicode="`" horiz-adv-x="1024" d="M254 1552h258l197 -370h-140z" />
<glyph unicode="a" horiz-adv-x="1169" d="M39 264q0 142 86.5 224t286.5 126q19 5 54 12q228 49 228 115q0 35 -28 50.5t-93 15.5q-89 0 -188 -21.5t-197 -62.5l45 297q91 26 193 39.5t213 13.5q224 0 331 -65.5t107 -202.5q0 -22 -1 -50t-3 -59l-24 -523q-2 -15 -2 -45v-128h-396q8 108 12.5 168.5t6.5 85.5 l8 182q-20 -7 -44.5 -14.5t-64.5 -18.5l-84 -20q-53 -13 -81.5 -40t-28.5 -64q0 -36 26 -58t70 -22q21 0 53 4.5t76 13.5l-62 -223q-44 -9 -84.5 -14t-76.5 -5q-159 0 -248.5 77.5t-89.5 211.5z" />
<glyph unicode="b" horiz-adv-x="1331" d="M82 0q28 348 44.5 686t21.5 668l401 -1q-5 -69 -9.5 -148.5t-9.5 -170.5q64 19 121 28t109 9q229 0 366.5 -141.5t137.5 -378.5q0 -262 -134 -421t-352 -159q-102 0 -177 36.5t-122 109.5l-4 -117h-393zM498 526q0 -136 42.5 -201t131.5 -65q90 0 140 74t50 209 q0 128 -50.5 190t-154.5 62q-38 0 -73.5 -8t-69.5 -23q-8 -42 -12 -102.5t-4 -135.5z" />
<glyph unicode="c" horiz-adv-x="995" d="M61 487q0 274 155.5 429t428.5 155q63 0 133.5 -10.5t149.5 -32.5l14 -305q-98 23 -140.5 30t-76.5 7q-124 0 -189 -66.5t-65 -193.5q0 -102 59.5 -157.5t169.5 -55.5q51 0 105 8.5t117 26.5l-48 -316q-82 -18 -157.5 -27.5t-143.5 -9.5q-243 0 -377.5 136t-134.5 382z " />
<glyph unicode="d" horiz-adv-x="1327" d="M68 442q0 281 178 453t465 172q28 0 62.5 -3t76.5 -9q5 64 7.5 136t2.5 165h395q-27 -402 -45.5 -734.5t-30.5 -621.5h-380l2 66q-53 -49 -122.5 -72t-162.5 -23q-209 0 -328.5 126t-119.5 345zM469 485q0 -107 45 -168t123 -61q89 0 137.5 65.5t54.5 194.5l13 272 q-27 9 -51.5 13t-47.5 4q-127 0 -200.5 -86t-73.5 -234z" />
<glyph unicode="e" horiz-adv-x="1186" d="M66 475q0 280 156 438t433 158q238 0 354.5 -104t116.5 -316q0 -39 -4.5 -89.5t-13.5 -110.5l-623 -1q-1 -5 -1.5 -11t-0.5 -19q0 -87 62 -128.5t194 -41.5q68 0 138 8.5t143 26.5l-43 -271q-98 -21 -189 -32t-174 -11q-266 0 -407 130t-141 374zM487 653h269v9 q0 84 -30 128t-87 44q-61 0 -101 -47.5t-51 -133.5z" />
<glyph unicode="f" horiz-adv-x="768" d="M20 760l17 282l141 1q5 184 98 262.5t308 78.5q58 0 120.5 -6.5t129.5 -19.5l11 -215q-43 11 -80 16.5t-67 5.5q-67 0 -106.5 -32.5t-42.5 -89.5l252 -1l-15 -282h-223q-8 -161 -13 -339t-7 -421h-420q21 252 31 432t10 297v31h-144z" />
<glyph unicode="g" horiz-adv-x="1325" d="M68 457q0 295 193 453.5t554 158.5q113 0 220 -13.5t202 -39.5q-26 -358 -45 -738t-25 -408q-36 -173 -167 -253t-379 -80q-105 0 -207.5 14t-200.5 41l-25 289q119 -36 211 -53.5t162 -17.5q125 0 185.5 56.5t60.5 174.5q0 5 -1 16.5t-1 18.5q-62 -38 -133 -56t-158 -18 q-209 0 -327.5 121.5t-118.5 333.5zM469 494q0 -99 45 -155t123 -56q89 0 137.5 62.5t54.5 184.5l12 261q-24 7 -48.5 10.5t-49.5 3.5q-129 0 -201.5 -82t-72.5 -229z" />
<glyph unicode="h" horiz-adv-x="1341" d="M70 0q23 215 41 556.5t30 799.5h404q-11 -98 -18.5 -206.5t-12.5 -227.5q61 78 143.5 114.5t198.5 36.5q205 0 298 -80t93 -258q0 -64 -13 -308.5t-17 -426.5h-394q13 161 20 296.5t7 213.5q0 148 -32 203t-111 55q-129 0 -179.5 -143t-54.5 -625h-403z" />
<glyph unicode="i" horiz-adv-x="606" d="M70 0q25 237 38 493t13 533h416q-26 -224 -39 -474.5t-13 -551.5h-415zM131 1116l12 240h406l-12 -240h-406z" />
<glyph unicode="j" horiz-adv-x="606" d="M-219 -133q32 -10 67.5 -15.5t73.5 -5.5q87 0 123 42.5t49 181.5q16 169 24.5 404t10.5 552h416q-20 -191 -30.5 -325.5t-10.5 -186.5q0 -20 -5.5 -199.5t-9.5 -324.5v-25q-3 -176 -43 -250q-50 -93 -148.5 -134.5t-274.5 -41.5q-51 0 -105.5 7t-116.5 22zM139 1116 l13 240h405l-12 -240h-406z" />
<glyph unicode="k" horiz-adv-x="1237" d="M66 0q27 207 45.5 558.5t23.5 796.5l404 1q-11 -89 -18.5 -193.5t-12.5 -224.5l-39 -938h-403zM500 569q88 109 171.5 226.5t164.5 246.5h426l-347 -467l324 -575h-448q-60 137 -132.5 278.5t-158.5 290.5z" />
<glyph unicode="l" horiz-adv-x="612" d="M76 0q33 466 50 790.5t21 565.5h410q-34 -413 -52 -744.5t-18 -570.5v-41h-411z" />
<glyph unicode="m" horiz-adv-x="1866" d="M70 0q25 243 38 503t13 539h383v-129q60 86 130 123t173 37q127 0 207 -45t110 -133q60 96 131 137t179 41q176 0 257 -80.5t81 -257.5q0 -65 -12 -309.5t-16 -425.5h-390q12 119 18 246.5t6 263.5q0 152 -23.5 205t-82.5 53q-97 0 -136.5 -152.5t-39.5 -566.5v-49h-377 q12 135 18 262.5t6 247.5q0 152 -23.5 205t-82.5 53q-97 0 -136.5 -152.5t-39.5 -566.5v-49h-391z" />
<glyph unicode="n" horiz-adv-x="1341" d="M70 0q25 243 38 503t13 539h383v-129q68 85 151 122.5t201 37.5q205 0 298 -80t93 -258q0 -64 -13 -308.5t-17 -426.5h-394q13 161 20 296.5t7 213.5q0 148 -32 203t-111 55q-129 0 -179.5 -143t-54.5 -625h-403z" />
<glyph unicode="o" horiz-adv-x="1294" d="M61 500q0 266 162.5 418.5t444.5 152.5q271 0 418 -137t147 -389q0 -268 -160.5 -421t-441.5 -153q-274 0 -422 137t-148 392zM465 506q0 -129 43 -190.5t133 -61.5q93 0 140.5 68.5t47.5 201.5q0 144 -41 206.5t-135 62.5t-141 -71.5t-47 -215.5z" />
<glyph unicode="p" horiz-adv-x="1331" d="M51 -432q31 187 51 535.5t31 897.5q129 35 256.5 52.5t253.5 17.5q311 0 466 -131t155 -395q0 -260 -135 -417t-359 -157q-90 0 -161.5 24.5t-127.5 74.5l-10 -214q-4 -63 -6.5 -136t-4.5 -152h-409zM498 526q0 -134 41.5 -196t132.5 -62q92 0 141 71t49 204 q0 128 -50.5 190t-154.5 62q-38 0 -73.5 -8t-69.5 -23q-8 -42 -12 -102.5t-4 -135.5z" />
<glyph unicode="q" horiz-adv-x="1327" d="M68 440q0 304 192.5 467.5t550.5 163.5q134 0 247.5 -15t178.5 -40q-35 -495 -55 -866t-23 -582h-383q14 151 21.5 264t7.5 160v55q-59 -38 -131 -57t-160 -19q-207 0 -326.5 125.5t-119.5 343.5zM471 479q0 -104 44.5 -163.5t121.5 -59.5q89 0 137.5 65.5t54.5 194.5 l13 272q-27 9 -51.5 13t-47.5 4q-129 0 -200.5 -85.5t-71.5 -240.5z" />
<glyph unicode="r" horiz-adv-x="860" d="M70 0q24 233 36.5 468t12.5 470v104h354l-8 -145q54 91 123.5 132.5t167.5 41.5q19 0 57 -3q4 -1 6 -1l12 -319q-11 1 -22.5 1.5t-34.5 0.5q-100 0 -164 -39.5t-92 -118.5q-19 -54 -28.5 -161t-16.5 -431h-403z" />
<glyph unicode="s" horiz-adv-x="909" d="M25 326q118 -35 190.5 -49.5t124.5 -14.5q53 0 81 16t28 46q0 31 -116 109q-15 10 -23 15q-163 108 -209 173.5t-46 152.5q0 145 109.5 220t318.5 75q96 0 179 -9.5t155 -29.5l25 -282q-75 21 -137.5 30.5t-120.5 9.5q-44 0 -69.5 -15.5t-25.5 -41.5q0 -38 92 -95 q22 -14 33 -22q139 -89 190.5 -160.5t51.5 -162.5q0 -158 -112.5 -239t-331.5 -81q-93 0 -184 12t-177 35z" />
<glyph unicode="t" horiz-adv-x="786" d="M8 774l12 268h166l9 168l368 82l-14 -250h233l-14 -268h-225l-15 -278q0 -2 -1 -18.5t-1 -31.5q0 -101 27.5 -138.5t95.5 -37.5q15 0 62 8q19 3 30 4l-24 -290q-50 -11 -104 -16t-113 -5q-185 0 -275 81.5t-90 248.5v35l23 438h-150z" />
<glyph unicode="u" horiz-adv-x="1341" d="M94 307q0 64 13.5 309t17.5 426h393q-13 -161 -19.5 -295.5t-6.5 -211.5q0 -150 32 -205.5t111 -55.5q129 0 179 143t54 625h404q-26 -242 -38 -502.5t-13 -539.5h-383v131q-72 -86 -154 -124t-199 -38q-205 0 -298 80.5t-93 257.5z" />
<glyph unicode="v" horiz-adv-x="1143" d="M-12 1042h397q11 -48 30 -119.5t44 -160.5l110 -410l150 410q19 53 41.5 125.5t46.5 154.5h387q-165 -396 -268 -653.5t-148 -388.5h-467q-34 136 -120 413t-203 629z" />
<glyph unicode="w" horiz-adv-x="1821" d="M-4 1042h383q14 -83 47 -199v-1l119 -453l198 653h396l166 -657l139 438q11 35 26.5 87t36.5 132h359q-44 -106 -85.5 -211t-82.5 -210l-240 -621h-399l-141 662l-222 -662h-393l-149 524q-33 116 -71.5 242t-86.5 276z" />
<glyph unicode="x" horiz-adv-x="1139" d="M-35 0q88 128 138 204.5t85 135.5l138 225l-148 252q-9 17 -43 70t-100 155h461q19 -59 35 -106t26 -74l37 -104l51 112q17 37 33 78.5t33 93.5h448q-38 -52 -84 -119.5t-108 -162.5l-146 -225l135 -226q34 -57 82 -132t115 -177h-481q-23 57 -42 104.5t-32 77.5l-53 125 l-47 -122q-5 -11 -31.5 -75.5t-44.5 -109.5h-457z" />
<glyph unicode="y" horiz-adv-x="1143" d="M-43 -174q46 -9 83.5 -13.5t68.5 -5.5q94 0 151.5 45.5t91.5 147.5l-231 672q-27 80 -60.5 171.5t-74.5 198.5h430q15 -66 32.5 -132t36.5 -134l113 -401l102 340q23 77 45 158.5t43 168.5h402l-414 -1042q-107 -270 -232 -365.5t-351 -95.5q-54 0 -107.5 7t-110.5 22z " />
<glyph unicode="z" horiz-adv-x="1067" d="M31 0l14 297l485 465h-272q-42 0 -84 -1.5t-84 -4.5l14 286h908l-17 -315l-469 -446h222q30 0 85 3t140 9l-15 -293h-927z" />
<glyph unicode="{" horiz-adv-x="1024" d="M152 410v241q6 0 18 -1t18 -1q118 0 168 55.5t50 188.5v254q0 136 24 193.5t82 89.5q48 25 120.5 37t180.5 12q12 0 38.5 -1t41.5 -1v-242q-7 0 -21 1t-20 1q-98 0 -132 -35.5t-34 -146.5v-240q0 -140 -46 -200t-165 -85q120 -24 165.5 -82.5t45.5 -199.5v-242 q0 -110 33.5 -145t130.5 -35q7 0 21.5 1t21.5 1v-242q-15 0 -42 -1t-40 -1q-108 0 -179.5 12t-119.5 37q-59 32 -82.5 88.5t-23.5 192.5v256q0 133 -49.5 187.5t-168.5 54.5q-4 0 -17 -1t-19 -1z" />
<glyph unicode="|" horiz-adv-x="1024" d="M393 -483v2048h240v-2048h-240z" />
<glyph unicode="}" horiz-adv-x="1024" d="M133 -172q9 0 23 -1t20 -1q97 0 130.5 34.5t33.5 145.5v242q0 140 46 199t165 83q-120 25 -165.5 84t-45.5 201v240q0 111 -33.5 146.5t-126.5 35.5q-7 0 -22.5 -1t-24.5 -1v242q15 0 41.5 1t38.5 1q108 0 180 -12t121 -37q58 -32 82.5 -89.5t24.5 -193.5v-254 q0 -134 49 -189t168 -55q6 0 18 1t18 1v-241q-6 0 -18 1t-18 1q-119 0 -168 -55t-49 -187v-256q0 -137 -24.5 -194.5t-82.5 -88.5q-45 -24 -113.5 -35.5t-177.5 -11.5q-14 0 -44 1t-46 1v242z" />
<glyph unicode="~" horiz-adv-x="1706" d="M178 401v254q112 73 207.5 108.5t179.5 35.5q63 0 126.5 -12t169.5 -46q16 -5 51 -17q159 -56 247 -56q84 0 173.5 36t197.5 115v-254q-101 -69 -194 -103t-183 -34q-45 0 -89 7.5t-83 21.5q-13 4 -38 13q-255 89 -382 89q-84 0 -175.5 -37.5t-207.5 -120.5z" />
<glyph unicode="&#xa0;" />
<glyph unicode="&#xa1;" horiz-adv-x="739" d="M113 0q18 151 31.5 285t21.5 240l22 370h394l-7 -433q-1 -40 -1.5 -90t-0.5 -159q0 -84 0.5 -128.5t1.5 -84.5h-462zM172 991l21 365h434l-19 -365h-436z" />
<glyph unicode="&#xa2;" d="M186 696q0 208 98.5 342.5t288.5 186.5l9 159h307l-8 -139q38 -3 75.5 -12.5t75.5 -26.5l62 -354q-89 33 -164 49.5t-135 16.5q-105 0 -163.5 -59.5t-58.5 -166.5t57 -163t167 -56q54 0 123 9.5t151 27.5l-80 -311q-37 -14 -70.5 -20.5t-64.5 -6.5h-12l-6 -172h-324 l6 186q-164 38 -249 167.5t-85 342.5z" />
<glyph unicode="&#xa3;" d="M70 551l57 299h149q-41 46 -61 91.5t-20 92.5q0 158 165.5 255t444.5 97q82 0 161 -10.5t156 -32.5l41 -313q-123 43 -209.5 63.5t-146.5 20.5q-89 0 -140 -41.5t-51 -114.5q0 -31 10 -57.5t31 -50.5h402l-47 -299h-319q0 -6 0.5 -14t0.5 -23q0 -50 -16 -93t-49 -79 q89 -26 166 -38.5t147 -12.5q75 0 148 10t143 31l-57 -303q-22 -23 -54.5 -33t-93.5 -10q-157 0 -350 40t-242 40q-68 0 -140 -16.5t-149 -49.5l19 295q82 37 121 88t39 121q0 7 -1 17t-4 30h-251z" />
<glyph unicode="&#xa4;" horiz-adv-x="1241" d="M61 444l201 203q-36 54 -54 113t-18 125q0 67 18.5 126.5t53.5 110.5l-201 205l117 117l203 -201q54 37 113.5 55.5t126.5 18.5q69 0 130 -18.5t113 -55.5l201 201l119 -117l-201 -205q35 -53 52.5 -112t17.5 -125t-17.5 -125.5t-52.5 -112.5l201 -203l-119 -118 l-201 202q-52 -37 -111.5 -55t-129.5 -18t-128.5 17.5t-113.5 55.5l-203 -202zM362 885q0 -108 76 -184t185 -76q107 0 183.5 76t76.5 184q0 106 -76.5 183t-183.5 77t-184 -77t-77 -183z" />
<glyph unicode="&#xa5;" d="M18 1356h459q10 -38 20.5 -73t22.5 -69l121 -348l152 318q11 24 45 104q18 43 28 68h437l-213 -377h120h52l-9 -168q-28 1 -76.5 1.5t-181.5 0.5l-75 -133h73q60 0 120.5 1t131.5 3l-11 -172q-35 1 -86.5 1.5t-176.5 0.5h-150l-14 -340q0 -5 -1 -22t-1 -29q0 -25 3 -93 q1 -20 1 -30h-410q6 75 11.5 151t5.5 78l14 285h-156q-128 0 -176.5 -0.5t-78.5 -1.5l10 172q74 -2 133.5 -3t116.5 -1h71l-63 133h-70q-74 0 -112.5 -0.5t-71.5 -1.5l10 168h49h113z" />
<glyph unicode="&#xa6;" horiz-adv-x="1024" d="M393 -350v758h240v-758h-240zM393 674v758h240v-758h-240z" />
<glyph unicode="&#xa7;" horiz-adv-x="1255" d="M72 438q0 118 57.5 212.5t175.5 170.5q-44 50 -66 106.5t-22 119.5q0 152 131 247t346 95q123 0 234.5 -27t216.5 -82l-19 -330q-93 52 -180.5 79.5t-157.5 27.5q-50 0 -81 -16.5t-31 -41.5q0 -58 179 -167q53 -33 83 -52q134 -84 193 -170.5t59 -193.5t-62.5 -205 t-177.5 -172q44 -51 66 -105t22 -112q0 -158 -127.5 -253t-343.5 -95q-122 0 -239 22t-228 66l29 342q97 -52 183.5 -79.5t154.5 -27.5q55 0 86 15.5t31 42.5q0 53 -163 150q-68 41 -108 67q-120 76 -180.5 168t-60.5 198zM444 526q0 -60 94 -134q5 -4 9 -7l225 -176 q30 39 43.5 70t13.5 57q0 70 -135 176q-5 4 -8 6l-174 135q-36 -40 -52 -69.5t-16 -57.5z" />
<glyph unicode="&#xa8;" horiz-adv-x="1024" d="M260 1241v246h225v-246h-225zM610 1241v246h226v-246h-226z" />
<glyph unicode="&#xa9;" horiz-adv-x="1706" d="M106 737q0 148 57.5 285t164.5 246q105 106 238 161.5t286 55.5q154 0 289.5 -56t242.5 -163q106 -106 160.5 -240.5t54.5 -288.5q0 -153 -54 -287t-159 -237q-109 -108 -247 -165.5t-287 -57.5q-148 0 -283.5 57t-242.5 164t-163.5 241.5t-56.5 284.5zM242 737 q0 -119 47 -230.5t135 -199.5q87 -87 198 -133.5t232 -46.5t234 47t202 135q86 84 130 193t44 235q0 125 -45 235.5t-131 196.5q-88 89 -198.5 135t-235.5 46q-126 0 -235 -45.5t-195 -133.5q-88 -89 -135 -201t-47 -233zM446 731q0 207 111 329t299 122q157 0 257 -80 t108 -211h-213q-7 67 -47.5 104t-108.5 37q-83 0 -129.5 -77t-46.5 -216q0 -140 47.5 -212t138.5 -72q67 0 106.5 40.5t45.5 114.5h215q-6 -143 -107.5 -230t-263.5 -87q-190 0 -301 117.5t-111 320.5z" />
<glyph unicode="&#xaa;" horiz-adv-x="877" d="M29 811q0 100 64 156.5t217 89.5q15 3 41 8q169 34 169 80q0 25 -20.5 36t-69.5 11q-67 0 -142 -15.5t-147 -43.5l35 208q69 19 145 28t158 9q169 0 249.5 -46t80.5 -142q0 -15 -1 -34.5t-3 -41.5l-19 -367q-1 -10 -1.5 -31t-0.5 -89h-294q2 41 7 102.5t5 75.5l6 127 q-24 -8 -43 -13.5t-37 -9.5l-63 -14q-42 -10 -63 -28.5t-21 -45.5q0 -25 20 -40t53 -15q14 0 38.5 3t58.5 9l-48 -155q-32 -7 -62 -10t-58 -3q-120 0 -187 53.5t-67 147.5z" />
<glyph unicode="&#xab;" horiz-adv-x="938" d="M59 520l195 369h244l-168 -369l139 -366h-240zM477 520l195 369h243l-167 -369l141 -366h-242z" />
<glyph unicode="&#xac;" horiz-adv-x="1706" d="M254 639v227h1198v-501h-229v274h-969z" />
<glyph unicode="&#xad;" horiz-adv-x="692" d="M106 385l19 303h487l-18 -303h-488z" />
<glyph unicode="&#xae;" horiz-adv-x="1706" d="M106 737q0 151 59 290t169 247q105 104 237 157.5t281 53.5q156 0 294 -57.5t245 -167.5q101 -104 154.5 -238t53.5 -285q0 -155 -56.5 -291t-164.5 -239q-109 -105 -245 -161t-281 -56q-151 0 -287 58t-243 169q-105 108 -160.5 241.5t-55.5 278.5zM244 737 q0 -121 44 -229t130 -195q87 -90 199 -138t235 -48q121 0 232.5 45.5t199.5 130.5t134 196.5t46 237.5q0 124 -44 233.5t-128 194.5q-89 91 -200.5 138t-237.5 47q-124 0 -232 -44t-194 -128q-90 -90 -137 -203t-47 -238zM537 344v819h329q174 0 264.5 -60t90.5 -177 q0 -81 -46 -139t-128 -82l182 -361h-248l-154 326h-65v-326h-225zM762 803h80q74 0 110.5 26.5t36.5 79.5q0 59 -38 86t-122 27h-67v-219z" />
<glyph unicode="&#xaf;" horiz-adv-x="1024" d="M260 1286v156h576v-156h-576z" />
<glyph unicode="&#xb0;" horiz-adv-x="674" d="M27 1155q0 131 90.5 221t220.5 90q129 0 220 -91t91 -220q0 -128 -91.5 -219.5t-221.5 -91.5q-129 0 -219 90.5t-90 220.5zM172 1157q0 -70 48 -118t118 -48q68 0 116 49t48 117t-48 116t-116 48q-69 0 -117.5 -48t-48.5 -116z" />
<glyph unicode="&#xb1;" horiz-adv-x="1706" d="M254 -18v231h1198v-231h-1198zM254 690v232h481v319h238v-319h479v-232h-479v-319h-238v319h-481z" />
<glyph unicode="&#xb2;" horiz-adv-x="846" d="M20 543l15 200q200 124 324 236t124 164q0 27 -30 41t-91 14q-51 0 -123 -11t-157 -32l35 188q96 16 180 23.5t154 7.5q161 0 247 -54.5t86 -156.5q0 -84 -94 -188.5t-303 -251.5h356l-8 -180h-715z" />
<glyph unicode="&#xb3;" horiz-adv-x="846" d="M37 772q106 -32 174.5 -45.5t122.5 -13.5q69 0 107 24t38 68q0 41 -40.5 60.5t-125.5 19.5q-26 0 -66 -2t-87 -6l8 190q30 -3 58 -4.5t55 -1.5q86 0 128 19t42 59q0 34 -27.5 47.5t-97.5 13.5q-79 0 -136.5 -9t-109.5 -28l41 193q90 10 159.5 15t127.5 5q192 0 282 -46 t90 -144q0 -87 -64 -139t-193 -72q134 -10 197.5 -55.5t63.5 -133.5q0 -123 -118 -191.5t-334 -68.5q-77 0 -148 10t-139 29z" />
<glyph unicode="&#xb4;" horiz-adv-x="1024" d="M385 1182l197 370h260l-316 -370h-141z" />
<glyph unicode="&#xb5;" horiz-adv-x="1315" d="M-45 -428l238 1518h358l-80 -529q-6 -41 -9 -77.5t-3 -65.5q0 -85 35.5 -127.5t107.5 -42.5q88 0 138.5 68.5t74.5 220.5l88 553h357l-175 -1090h-321l18 125q-40 -75 -89.5 -108t-119.5 -33q-59 0 -106.5 31t-77.5 89l-82 -532h-352z" />
<glyph unicode="&#xb6;" horiz-adv-x="1024" d="M29 1130q0 158 106 253.5t283 95.5h579v-123h-106v-1356h-176v1356h-150v-1356h-174v784q-164 6 -263 101t-99 245z" />
<glyph unicode="&#xb7;" horiz-adv-x="639" d="M131 678q0 79 54.5 133.5t133.5 54.5q80 0 134.5 -54.5t54.5 -133.5q0 -80 -54.5 -134.5t-134.5 -54.5q-79 0 -133.5 54.5t-54.5 134.5z" />
<glyph unicode="&#xb8;" horiz-adv-x="1024" d="M250 -311q81 -22 145.5 -32.5t110.5 -10.5q51 0 75.5 18.5t24.5 56.5q0 37 -27 52.5t-92 15.5q-22 0 -35 -0.5t-24 -0.5v212h102v-90h15q116 0 175.5 -48.5t59.5 -144.5q0 -99 -66 -148.5t-200 -49.5q-51 0 -118 11t-146 32v127z" />
<glyph unicode="&#xb9;" horiz-adv-x="846" d="M150 1044l16 224l166 88h278q-9 -100 -20 -273q-1 -25 -2 -39l-13 -217q-2 -50 -4.5 -124t-5.5 -160h-282q8 96 15 201q1 13 1 18l18 377z" />
<glyph unicode="&#xba;" horiz-adv-x="971" d="M47 977q0 186 121.5 292.5t333.5 106.5q203 0 313.5 -96t110.5 -272q0 -188 -121 -295t-332 -107q-205 0 -315.5 96t-110.5 275zM348 981q0 -89 33 -132.5t100 -43.5q70 0 106 47.5t36 140.5q0 101 -31.5 145t-102.5 44q-70 0 -105.5 -50.5t-35.5 -150.5z" />
<glyph unicode="&#xbb;" horiz-adv-x="938" d="M31 154l168 368l-142 367h242l170 -367l-195 -368h-243zM449 154l167 368l-139 367h240l170 -367l-195 -368h-243z" />
<glyph unicode="&#xbc;" horiz-adv-x="1956" d="M143 1065l15 207l157 84h266q-6 -71 -11 -142.5t-9 -149.5l-12 -202q-1 -14 -4 -102t-7 -164h-270q9 92 16 189q0 11 1 16l18 352zM465 -14l809 1398h215l-811 -1398h-213zM1178 195l12 208q55 58 121 140t164 217h323l-22 -402h149l-10 -163h-150l-12 -195h-235l10 195 h-350zM1401 358h155l13 242q-29 -58 -70.5 -118t-97.5 -124z" />
<glyph unicode="&#xbd;" horiz-adv-x="1956" d="M143 1065l15 207l157 84h266q-6 -71 -11 -142.5t-9 -149.5l-12 -202q-1 -14 -4 -102t-7 -164h-270q9 92 16 189q0 11 1 16l18 352zM465 -14l809 1398h215l-811 -1398h-213zM1167 0l15 186q193 117 311.5 221.5t118.5 153.5q0 26 -29 38.5t-88 12.5q-48 0 -116.5 -10.5 t-151.5 -30.5l35 177q96 14 174.5 21t142.5 7q154 0 235.5 -50.5t81.5 -145.5q0 -80 -88.5 -177t-289.5 -235h342l-9 -168h-684z" />
<glyph unicode="&#xbe;" horiz-adv-x="1956" d="M35 811q92 -30 161 -43.5t123 -13.5q66 0 103 22.5t37 63.5q0 38 -40 56.5t-120 18.5q-25 0 -63 -2t-84 -6l8 178q29 -3 56 -4.5t50 -1.5q85 0 124.5 18t39.5 56q0 31 -26 44t-93 13q-68 0 -125 -8.5t-110 -25.5l41 178q84 10 150.5 15t121.5 5q182 0 269 -43.5 t87 -134.5q0 -80 -61 -129t-184 -68q127 -9 187.5 -51.5t60.5 -124.5q0 -114 -113 -177.5t-318 -63.5q-77 0 -144.5 9t-129.5 27zM465 -14l809 1398h215l-811 -1398h-213zM1178 195l12 208q55 58 121 140t164 217h323l-22 -402h149l-10 -163h-150l-12 -195h-235l10 195h-350 zM1401 358h155l13 242q-29 -58 -70.5 -118t-97.5 -124z" />
<glyph unicode="&#xbf;" horiz-adv-x="1143" d="M55 313q0 157 245 361q21 17 32 26q67 58 89.5 103t25.5 110h397v-16q0 -91 -33.5 -161t-116.5 -146q-17 -16 -48 -45q-132 -122 -132 -172q0 -40 46 -63t126 -23q78 0 167 12t224 43l-63 -340q-112 -16 -216.5 -24.5t-201.5 -8.5q-264 0 -402.5 88t-138.5 256zM442 1004 l15 366h430l-17 -366h-428z" />
<glyph unicode="&#xc0;" horiz-adv-x="1511" d="M-104 0l602 1192q11 22 27 59.5t42 104.5l539 -1q5 -37 13 -72.5t20 -70.5l397 -1212h-444q-3 25 -8.5 54t-14.5 65l-74 307h-485l-113 -270q-15 -38 -28.5 -77.5t-24.5 -78.5h-448zM553 1837h258l197 -370h-140zM627 735h293l-111 432z" />
<glyph unicode="&#xc1;" horiz-adv-x="1511" d="M-104 0l602 1192q11 22 27 59.5t42 104.5l539 -1q5 -37 13 -72.5t20 -70.5l397 -1212h-444q-3 25 -8.5 54t-14.5 65l-74 307h-485l-113 -270q-15 -38 -28.5 -77.5t-24.5 -78.5h-448zM627 735h293l-111 432zM684 1467l197 370h260l-316 -370h-141z" />
<glyph unicode="&#xc2;" horiz-adv-x="1511" d="M-104 0l602 1192q11 22 27 59.5t42 104.5l539 -1q5 -37 13 -72.5t20 -70.5l397 -1212h-444q-3 25 -8.5 54t-14.5 65l-74 307h-485l-113 -270q-15 -38 -28.5 -77.5t-24.5 -78.5h-448zM530 1467l197 370h238l196 -370h-141l-174 219l-174 -219h-142zM627 735h293l-111 432z " />
<glyph unicode="&#xc3;" horiz-adv-x="1511" d="M-104 0l602 1192q11 22 27 59.5t42 104.5l539 -1q5 -37 13 -72.5t20 -70.5l397 -1212h-444q-3 25 -8.5 54t-14.5 65l-74 307h-485l-113 -270q-15 -38 -28.5 -77.5t-24.5 -78.5h-448zM528 1514q25 122 75 179.5t130 57.5q21 0 43.5 -3.5t44.5 -10.5l90 -25q13 -4 26.5 -6 t29.5 -2q32 0 53.5 21t32.5 63h110q-26 -124 -77 -182.5t-132 -58.5q-21 0 -39 2.5t-35 7.5l-87 24q-28 8 -42 10.5t-24 2.5q-34 0 -55 -19t-33 -61h-111zM627 735h293l-111 432z" />
<glyph unicode="&#xc4;" horiz-adv-x="1511" d="M-104 0l602 1192q11 22 27 59.5t42 104.5l539 -1q5 -37 13 -72.5t20 -70.5l397 -1212h-444q-3 25 -8.5 54t-14.5 65l-74 307h-485l-113 -270q-15 -38 -28.5 -77.5t-24.5 -78.5h-448zM559 1526v246h225v-246h-225zM627 735h293l-111 432zM909 1526v246h226v-246h-226z" />
<glyph unicode="&#xc5;" horiz-adv-x="1511" d="M-104 0l602 1192q11 22 27 59.5t42 104.5l539 -1q5 -37 13 -72.5t20 -70.5l397 -1212h-444q-3 25 -8.5 54t-14.5 65l-74 307h-485l-113 -270q-15 -38 -28.5 -77.5t-24.5 -78.5h-448zM590 1690q0 110 77 187t189 77t189 -77t77 -187q0 -113 -77 -191t-189 -78t-189 78 t-77 191zM627 735h293l-111 432zM733 1688q0 -52 35.5 -86.5t87.5 -34.5t87.5 35t35.5 86q0 50 -36 86t-87 36q-52 0 -87.5 -35t-35.5 -87z" />
<glyph unicode="&#xc6;" horiz-adv-x="1901" d="M-106 0l600 1192q13 27 30 67t39 97h1315l-14 -313q-81 3 -145.5 5.5t-86.5 2.5l-436 -1q5 -53 15.5 -106t27.5 -106h303q65 0 120 2t103 6l-17 -320q-33 4 -71 5t-116 1h-95h-168q8 -62 19 -117.5t24 -103.5q68 -8 110.5 -11t76.5 -3q51 0 127.5 4.5t179.5 13.5 l-16 -315h-824v18q0 25 -2 48t-8 53l-49 307h-436l-119 -270q-5 -12 -19.5 -53t-35.5 -103h-432zM618 715h283l-74 485z" />
<glyph unicode="&#xc7;" horiz-adv-x="1341" d="M70 647q0 350 212.5 543.5t598.5 193.5q96 0 193 -10.5t196 -32.5l16 -311q-82 28 -164 41.5t-161 13.5q-215 0 -335 -113.5t-120 -316.5q0 -189 106 -279.5t328 -90.5q80 0 159.5 10.5t164.5 32.5l-47 -318q-90 -20 -184.5 -30.5t-192.5 -10.5q-376 0 -573 173.5 t-197 504.5zM545 -311q81 -22 145.5 -32.5t110.5 -10.5q51 0 75.5 18.5t24.5 56.5q0 37 -27 52.5t-92 15.5q-22 0 -35 -0.5t-24 -0.5v212h102v-90h15q116 0 175.5 -48.5t59.5 -144.5q0 -99 -66 -148.5t-200 -49.5q-51 0 -118 11t-146 32v127z" />
<glyph unicode="&#xc8;" horiz-adv-x="1270" d="M76 0q27 250 44 589.5t23 766.5h1090l-16 -314q-82 4 -145 6.5t-85 2.5l-430 -1q-8 -78 -10 -116t-2 -70v-26h352q69 0 123 2t100 6l-16 -319q-34 3 -72 4t-117 1h-94h-293q-6 -42 -9 -82t-3 -81q0 -24 0.5 -36t1.5 -21q59 -7 127.5 -10t167.5 -3q104 0 199 4t178 12 l-16 -315h-1098zM428 1837h258l197 -370h-140z" />
<glyph unicode="&#xc9;" horiz-adv-x="1270" d="M76 0q27 250 44 589.5t23 766.5h1090l-16 -314q-82 4 -145 6.5t-85 2.5l-430 -1q-8 -78 -10 -116t-2 -70v-26h352q69 0 123 2t100 6l-16 -319q-34 3 -72 4t-117 1h-94h-293q-6 -42 -9 -82t-3 -81q0 -24 0.5 -36t1.5 -21q59 -7 127.5 -10t167.5 -3q104 0 199 4t178 12 l-16 -315h-1098zM559 1467l197 370h260l-316 -370h-141z" />
<glyph unicode="&#xca;" horiz-adv-x="1270" d="M76 0q27 250 44 589.5t23 766.5h1090l-16 -314q-82 4 -145 6.5t-85 2.5l-430 -1q-8 -78 -10 -116t-2 -70v-26h352q69 0 123 2t100 6l-16 -319q-34 3 -72 4t-117 1h-94h-293q-6 -42 -9 -82t-3 -81q0 -24 0.5 -36t1.5 -21q59 -7 127.5 -10t167.5 -3q104 0 199 4t178 12 l-16 -315h-1098zM405 1467l197 370h238l196 -370h-141l-174 219l-174 -219h-142z" />
<glyph unicode="&#xcb;" horiz-adv-x="1270" d="M76 0q27 250 44 589.5t23 766.5h1090l-16 -314q-82 4 -145 6.5t-85 2.5l-430 -1q-8 -78 -10 -116t-2 -70v-26h352q69 0 123 2t100 6l-16 -319q-34 3 -72 4t-117 1h-94h-293q-6 -42 -9 -82t-3 -81q0 -24 0.5 -36t1.5 -21q59 -7 127.5 -10t167.5 -3q104 0 199 4t178 12 l-16 -315h-1098zM434 1526v246h225v-246h-225zM784 1526v246h226v-246h-226z" />
<glyph unicode="&#xcc;" horiz-adv-x="666" d="M80 0q28 256 46 601t24 755h436q-6 -49 -11 -109.5t-12 -171.5l-35 -635q-4 -88 -7 -198t-5 -242h-436zM86 1837h258l197 -370h-140z" />
<glyph unicode="&#xcd;" horiz-adv-x="666" d="M80 0q28 256 46 601t24 755h436q-6 -49 -11 -109.5t-12 -171.5l-35 -635q-4 -88 -7 -198t-5 -242h-436zM217 1467l197 370h260l-316 -370h-141z" />
<glyph unicode="&#xce;" horiz-adv-x="666" d="M63 1467l197 370h238l196 -370h-141l-174 219l-174 -219h-142zM80 0q28 256 46 601t24 755h436q-6 -49 -11 -109.5t-12 -171.5l-35 -635q-4 -88 -7 -198t-5 -242h-436z" />
<glyph unicode="&#xcf;" horiz-adv-x="666" d="M80 0q28 256 46 601t24 755h436q-6 -49 -11 -109.5t-12 -171.5l-35 -635q-4 -88 -7 -198t-5 -242h-436zM92 1526v246h225v-246h-225zM442 1526v246h226v-246h-226z" />
<glyph unicode="&#xd0;" horiz-adv-x="1550" d="M13 563l14 264q19 -1 43 -1.5t82 -0.5q7 186 12 513v18h657q196 0 282 -21t150 -69q112 -84 170 -219.5t58 -313.5q0 -358 -200 -545.5t-581 -187.5h-606q18 158 29 297.5t16 267.5q-55 0 -81 -0.5t-45 -1.5zM545 313h43q134 0 198.5 14.5t112.5 49.5q72 51 110 137 t38 201q0 169 -62 248t-194 79h-220l-10 -217q114 0 159.5 0.5t78.5 1.5l-13 -262h-237q-2 -77 -3 -136t-1 -116z" />
<glyph unicode="&#xd1;" horiz-adv-x="1612" d="M76 0q19 152 36 427t44 929h520l454 -969l21 657v7q4 120 4 180q0 22 -1 63.5t-1 61.5h383q-12 -93 -18 -159.5t-9 -123.5l-39 -772q-2 -41 -3 -77.5t-1 -73.5q0 -20 1 -70.5t1 -79.5h-534q-80 188 -155 355q-5 12 -7 16l-276 590l-25 -540q-3 -71 -7 -260 q-2 -104 -4 -161h-384zM534 1514q25 122 75 179.5t130 57.5q21 0 43.5 -3.5t44.5 -10.5l90 -25q13 -4 26.5 -6t29.5 -2q32 0 53.5 21t32.5 63h110q-26 -124 -77 -182.5t-132 -58.5q-21 0 -39 2.5t-35 7.5l-87 24q-28 8 -42 10.5t-24 2.5q-34 0 -55 -19t-33 -61h-111z" />
<glyph unicode="&#xd2;" horiz-adv-x="1741" d="M68 651q0 343 213 538t587 195q388 0 595.5 -175.5t207.5 -503.5q0 -346 -215.5 -540t-603.5 -194q-373 0 -578.5 179t-205.5 501zM506 678q0 -197 91 -295t273 -98q173 0 268 108t95 305q0 183 -92.5 278t-270.5 95q-172 0 -268 -103.5t-96 -289.5zM625 1837h258 l197 -370h-140z" />
<glyph unicode="&#xd3;" horiz-adv-x="1741" d="M68 651q0 343 213 538t587 195q388 0 595.5 -175.5t207.5 -503.5q0 -346 -215.5 -540t-603.5 -194q-373 0 -578.5 179t-205.5 501zM506 678q0 -197 91 -295t273 -98q173 0 268 108t95 305q0 183 -92.5 278t-270.5 95q-172 0 -268 -103.5t-96 -289.5zM756 1467l197 370 h260l-316 -370h-141z" />
<glyph unicode="&#xd4;" horiz-adv-x="1741" d="M68 651q0 343 213 538t587 195q388 0 595.5 -175.5t207.5 -503.5q0 -346 -215.5 -540t-603.5 -194q-373 0 -578.5 179t-205.5 501zM506 678q0 -197 91 -295t273 -98q173 0 268 108t95 305q0 183 -92.5 278t-270.5 95q-172 0 -268 -103.5t-96 -289.5zM602 1467l197 370 h238l196 -370h-141l-174 219l-174 -219h-142z" />
<glyph unicode="&#xd5;" horiz-adv-x="1741" d="M68 651q0 343 213 538t587 195q388 0 595.5 -175.5t207.5 -503.5q0 -346 -215.5 -540t-603.5 -194q-373 0 -578.5 179t-205.5 501zM506 678q0 -197 91 -295t273 -98q173 0 268 108t95 305q0 183 -92.5 278t-270.5 95q-172 0 -268 -103.5t-96 -289.5zM600 1514 q25 122 75 179.5t130 57.5q21 0 43.5 -3.5t44.5 -10.5l90 -25q13 -4 26.5 -6t29.5 -2q32 0 53.5 21t32.5 63h110q-26 -124 -77 -182.5t-132 -58.5q-21 0 -39 2.5t-35 7.5l-87 24q-28 8 -42 10.5t-24 2.5q-34 0 -55 -19t-33 -61h-111z" />
<glyph unicode="&#xd6;" horiz-adv-x="1741" d="M68 651q0 343 213 538t587 195q388 0 595.5 -175.5t207.5 -503.5q0 -346 -215.5 -540t-603.5 -194q-373 0 -578.5 179t-205.5 501zM506 678q0 -197 91 -295t273 -98q173 0 268 108t95 305q0 183 -92.5 278t-270.5 95q-172 0 -268 -103.5t-96 -289.5zM631 1526v246h225 v-246h-225zM981 1526v246h226v-246h-226z" />
<glyph unicode="&#xd7;" horiz-adv-x="1706" d="M268 170l441 440l-441 443l162 161l440 -440l441 440l162 -161l-441 -443l441 -440l-162 -162l-441 441l-440 -441z" />
<glyph unicode="&#xd8;" horiz-adv-x="1741" d="M68 645q0 352 214.5 546.5t604.5 194.5q129 0 268 -30h2l86 139h283l-146 -227q148 -91 219.5 -229t71.5 -330q0 -350 -216.5 -543t-610.5 -193q-78 0 -146.5 8.5t-132.5 24.5l-108 -164h-283l166 258q-141 101 -206.5 233t-65.5 312zM492 674q0 -75 16 -138t51 -122 l426 653q-31 6 -60.5 9t-58.5 3q-175 0 -274.5 -108t-99.5 -297zM733 291q28 -8 60.5 -12.5t70.5 -4.5q184 0 282.5 111.5t98.5 319.5q0 77 -19 137.5t-61 115.5z" />
<glyph unicode="&#xd9;" horiz-adv-x="1479" d="M96 383q0 49 15.5 372.5t17.5 599.5l430 1q-8 -68 -14 -139t-8 -141l-27 -525q-1 -11 -1.5 -25t-0.5 -41q0 -101 51.5 -149.5t157.5 -48.5q117 0 173 58.5t62 189.5l23 475q5 99 6.5 151.5t1.5 98.5q0 39 -0.5 59t-1.5 37h434q-8 -64 -14.5 -133t-11.5 -149l-25 -472 q-2 -29 -4 -83q-8 -203 -45 -290q-55 -124 -213.5 -191t-401.5 -67q-286 0 -445 109t-159 303zM494 1837h258l197 -370h-140z" />
<glyph unicode="&#xda;" horiz-adv-x="1479" d="M96 383q0 49 15.5 372.5t17.5 599.5l430 1q-8 -68 -14 -139t-8 -141l-27 -525q-1 -11 -1.5 -25t-0.5 -41q0 -101 51.5 -149.5t157.5 -48.5q117 0 173 58.5t62 189.5l23 475q5 99 6.5 151.5t1.5 98.5q0 39 -0.5 59t-1.5 37h434q-8 -64 -14.5 -133t-11.5 -149l-25 -472 q-2 -29 -4 -83q-8 -203 -45 -290q-55 -124 -213.5 -191t-401.5 -67q-286 0 -445 109t-159 303zM625 1467l197 370h260l-316 -370h-141z" />
<glyph unicode="&#xdb;" horiz-adv-x="1479" d="M96 383q0 49 15.5 372.5t17.5 599.5l430 1q-8 -68 -14 -139t-8 -141l-27 -525q-1 -11 -1.5 -25t-0.5 -41q0 -101 51.5 -149.5t157.5 -48.5q117 0 173 58.5t62 189.5l23 475q5 99 6.5 151.5t1.5 98.5q0 39 -0.5 59t-1.5 37h434q-8 -64 -14.5 -133t-11.5 -149l-25 -472 q-2 -29 -4 -83q-8 -203 -45 -290q-55 -124 -213.5 -191t-401.5 -67q-286 0 -445 109t-159 303zM471 1467l197 370h238l196 -370h-141l-174 219l-174 -219h-142z" />
<glyph unicode="&#xdc;" horiz-adv-x="1479" d="M96 383q0 49 15.5 372.5t17.5 599.5l430 1q-8 -68 -14 -139t-8 -141l-27 -525q-1 -11 -1.5 -25t-0.5 -41q0 -101 51.5 -149.5t157.5 -48.5q117 0 173 58.5t62 189.5l23 475q5 99 6.5 151.5t1.5 98.5q0 39 -0.5 59t-1.5 37h434q-8 -64 -14.5 -133t-11.5 -149l-25 -472 q-2 -29 -4 -83q-8 -203 -45 -290q-55 -124 -213.5 -191t-401.5 -67q-286 0 -445 109t-159 303zM500 1526v246h225v-246h-225zM850 1526v246h226v-246h-226z" />
<glyph unicode="&#xdd;" horiz-adv-x="1171" d="M-39 1356h471q13 -53 22.5 -84t18.5 -58l123 -348l149 317q10 20 25.5 55t50.5 118h443l-482 -842l-14 -340q0 -5 -1 -22t-1 -29q0 -25 3 -93q1 -20 1 -30h-427q5 72 10 147.5t5 81.5l15 291zM471 1467l197 370h260l-316 -370h-141z" />
<glyph unicode="&#xde;" horiz-adv-x="1255" d="M76 0q28 247 45.5 589t23.5 767h433l-23 -256h184q139 0 198 -9.5t105 -31.5q79 -38 125.5 -125.5t46.5 -198.5q0 -217 -129 -348t-342 -131q-14 0 -34.5 1.5t-46.5 4.5l-91 260q120 0 179 41.5t59 124.5q0 69 -42.5 107.5t-119.5 38.5q-25 0 -51 -2.5t-53 -6.5l-21 -385 q-4 -95 -7.5 -205t-5.5 -235h-433z" />
<glyph unicode="&#xdf;" horiz-adv-x="1309" d="M74 0q21 248 37 632q19 458 67 548q53 100 184 152t330 52q223 0 320.5 -70t97.5 -231q0 -101 -9 -140.5t-32 -55.5q-25 -19 -76 -30q-15 -3 -22 -5q-42 -13 -57 -27.5t-15 -40.5q0 -41 100 -112q45 -32 70 -51q112 -86 148 -152.5t36 -163.5q0 -146 -112 -233.5 t-301 -87.5q-43 0 -102 5t-130 15l-20 295q40 -14 73.5 -21.5t61.5 -7.5q64 0 102.5 30t38.5 79q0 64 -114 147q-15 11 -23 17q-72 54 -100.5 104t-28.5 121q0 80 39.5 125.5t124.5 62.5q6 23 9 41.5t3 32.5q0 50 -25 75t-75 25q-82 0 -116.5 -57t-43.5 -230l-41 -843h-399z " />
<glyph unicode="&#xe0;" horiz-adv-x="1169" d="M39 264q0 142 86.5 224t286.5 126q19 5 54 12q228 49 228 115q0 35 -28 50.5t-93 15.5q-89 0 -188 -21.5t-197 -62.5l45 297q91 26 193 39.5t213 13.5q224 0 331 -65.5t107 -202.5q0 -22 -1 -50t-3 -59l-24 -523q-2 -15 -2 -45v-128h-396q8 108 12.5 168.5t6.5 85.5 l8 182q-20 -7 -44.5 -14.5t-64.5 -18.5l-84 -20q-53 -13 -81.5 -40t-28.5 -64q0 -36 26 -58t70 -22q21 0 53 4.5t76 13.5l-62 -223q-44 -9 -84.5 -14t-76.5 -5q-159 0 -248.5 77.5t-89.5 211.5zM379 1552h258l197 -370h-140z" />
<glyph unicode="&#xe1;" horiz-adv-x="1169" d="M39 264q0 142 86.5 224t286.5 126q19 5 54 12q228 49 228 115q0 35 -28 50.5t-93 15.5q-89 0 -188 -21.5t-197 -62.5l45 297q91 26 193 39.5t213 13.5q224 0 331 -65.5t107 -202.5q0 -22 -1 -50t-3 -59l-24 -523q-2 -15 -2 -45v-128h-396q8 108 12.5 168.5t6.5 85.5 l8 182q-20 -7 -44.5 -14.5t-64.5 -18.5l-84 -20q-53 -13 -81.5 -40t-28.5 -64q0 -36 26 -58t70 -22q21 0 53 4.5t76 13.5l-62 -223q-44 -9 -84.5 -14t-76.5 -5q-159 0 -248.5 77.5t-89.5 211.5zM510 1182l197 370h260l-316 -370h-141z" />
<glyph unicode="&#xe2;" horiz-adv-x="1169" d="M39 264q0 142 86.5 224t286.5 126q19 5 54 12q228 49 228 115q0 35 -28 50.5t-93 15.5q-89 0 -188 -21.5t-197 -62.5l45 297q91 26 193 39.5t213 13.5q224 0 331 -65.5t107 -202.5q0 -22 -1 -50t-3 -59l-24 -523q-2 -15 -2 -45v-128h-396q8 108 12.5 168.5t6.5 85.5 l8 182q-20 -7 -44.5 -14.5t-64.5 -18.5l-84 -20q-53 -13 -81.5 -40t-28.5 -64q0 -36 26 -58t70 -22q21 0 53 4.5t76 13.5l-62 -223q-44 -9 -84.5 -14t-76.5 -5q-159 0 -248.5 77.5t-89.5 211.5zM356 1182l197 370h238l196 -370h-141l-174 219l-174 -219h-142z" />
<glyph unicode="&#xe3;" horiz-adv-x="1169" d="M39 264q0 142 86.5 224t286.5 126q19 5 54 12q228 49 228 115q0 35 -28 50.5t-93 15.5q-89 0 -188 -21.5t-197 -62.5l45 297q91 26 193 39.5t213 13.5q224 0 331 -65.5t107 -202.5q0 -22 -1 -50t-3 -59l-24 -523q-2 -15 -2 -45v-128h-396q8 108 12.5 168.5t6.5 85.5 l8 182q-20 -7 -44.5 -14.5t-64.5 -18.5l-84 -20q-53 -13 -81.5 -40t-28.5 -64q0 -36 26 -58t70 -22q21 0 53 4.5t76 13.5l-62 -223q-44 -9 -84.5 -14t-76.5 -5q-159 0 -248.5 77.5t-89.5 211.5zM354 1229q25 122 75 179.5t130 57.5q21 0 43.5 -3.5t44.5 -10.5l90 -25 q13 -4 26.5 -6t29.5 -2q32 0 53.5 21t32.5 63h110q-26 -124 -77 -182.5t-132 -58.5q-21 0 -39 2.5t-35 7.5l-87 24q-28 8 -42 10.5t-24 2.5q-34 0 -55 -19t-33 -61h-111z" />
<glyph unicode="&#xe4;" horiz-adv-x="1169" d="M39 264q0 142 86.5 224t286.5 126q19 5 54 12q228 49 228 115q0 35 -28 50.5t-93 15.5q-89 0 -188 -21.5t-197 -62.5l45 297q91 26 193 39.5t213 13.5q224 0 331 -65.5t107 -202.5q0 -22 -1 -50t-3 -59l-24 -523q-2 -15 -2 -45v-128h-396q8 108 12.5 168.5t6.5 85.5 l8 182q-20 -7 -44.5 -14.5t-64.5 -18.5l-84 -20q-53 -13 -81.5 -40t-28.5 -64q0 -36 26 -58t70 -22q21 0 53 4.5t76 13.5l-62 -223q-44 -9 -84.5 -14t-76.5 -5q-159 0 -248.5 77.5t-89.5 211.5zM385 1241v246h225v-246h-225zM735 1241v246h226v-246h-226z" />
<glyph unicode="&#xe5;" horiz-adv-x="1169" d="M39 264q0 142 86.5 224t286.5 126q19 5 54 12q228 49 228 115q0 35 -28 50.5t-93 15.5q-89 0 -188 -21.5t-197 -62.5l45 297q91 26 193 39.5t213 13.5q224 0 331 -65.5t107 -202.5q0 -22 -1 -50t-3 -59l-24 -523q-2 -15 -2 -45v-128h-396q8 108 12.5 168.5t6.5 85.5 l8 182q-20 -7 -44.5 -14.5t-64.5 -18.5l-84 -20q-53 -13 -81.5 -40t-28.5 -64q0 -36 26 -58t70 -22q21 0 53 4.5t76 13.5l-62 -223q-44 -9 -84.5 -14t-76.5 -5q-159 0 -248.5 77.5t-89.5 211.5zM420 1405q0 111 76 187.5t188 76.5t189 -76.5t77 -187.5q0 -112 -77 -189 t-189 -77t-188 76.5t-76 189.5zM563 1403q0 -52 34.5 -86.5t86.5 -34.5t87.5 35t35.5 86t-36 87t-87 36q-52 0 -86.5 -35.5t-34.5 -87.5z" />
<glyph unicode="&#xe6;" horiz-adv-x="1765" d="M35 264q0 142 86.5 224t285.5 126q17 4 48 11q235 51 235 112q0 39 -26.5 54.5t-96.5 15.5q-89 0 -186.5 -21.5t-196.5 -62.5l45 297q89 26 192.5 39.5t217.5 13.5q99 0 174.5 -13.5t136.5 -41.5q52 27 124 40t165 13q234 0 349.5 -105t115.5 -317q0 -37 -4.5 -87 t-13.5 -111l-621 -1q-1 -5 -1.5 -11t-0.5 -19q0 -87 61 -128.5t189 -41.5q68 0 140.5 9t145.5 26l-45 -271q-98 -21 -187.5 -32t-170.5 -11q-259 0 -398.5 118t-150.5 345q-35 -18 -91 -31q-4 -1 -7 -2l-68 -18q-54 -14 -82 -41t-28 -63q0 -38 27 -59t75 -21q31 0 72.5 6.5 t91.5 19.5l-62 -225q-58 -13 -100 -19t-72 -6q-180 0 -274 74t-94 215zM1065 651h266v8q0 87 -30 129.5t-91 42.5q-56 0 -95.5 -48t-49.5 -132z" />
<glyph unicode="&#xe7;" horiz-adv-x="995" d="M61 487q0 274 155.5 429t428.5 155q63 0 133.5 -10.5t149.5 -32.5l14 -305q-98 23 -140.5 30t-76.5 7q-124 0 -189 -66.5t-65 -193.5q0 -102 59.5 -157.5t169.5 -55.5q51 0 105 8.5t117 26.5l-48 -316q-82 -18 -157.5 -27.5t-143.5 -9.5q-243 0 -377.5 136t-134.5 382z M293 -311q81 -22 145.5 -32.5t110.5 -10.5q51 0 75.5 18.5t24.5 56.5q0 37 -27 52.5t-92 15.5q-22 0 -35 -0.5t-24 -0.5v212h102v-90h15q116 0 175.5 -48.5t59.5 -144.5q0 -99 -66 -148.5t-200 -49.5q-51 0 -118 11t-146 32v127z" />
<glyph unicode="&#xe8;" horiz-adv-x="1186" d="M66 475q0 280 156 438t433 158q238 0 354.5 -104t116.5 -316q0 -39 -4.5 -89.5t-13.5 -110.5l-623 -1q-1 -5 -1.5 -11t-0.5 -19q0 -87 62 -128.5t194 -41.5q68 0 138 8.5t143 26.5l-43 -271q-98 -21 -189 -32t-174 -11q-266 0 -407 130t-141 374zM383 1552h258l197 -370 h-140zM487 653h269v9q0 84 -30 128t-87 44q-61 0 -101 -47.5t-51 -133.5z" />
<glyph unicode="&#xe9;" horiz-adv-x="1186" d="M66 475q0 280 156 438t433 158q238 0 354.5 -104t116.5 -316q0 -39 -4.5 -89.5t-13.5 -110.5l-623 -1q-1 -5 -1.5 -11t-0.5 -19q0 -87 62 -128.5t194 -41.5q68 0 138 8.5t143 26.5l-43 -271q-98 -21 -189 -32t-174 -11q-266 0 -407 130t-141 374zM487 653h269v9 q0 84 -30 128t-87 44q-61 0 -101 -47.5t-51 -133.5zM514 1182l197 370h260l-316 -370h-141z" />
<glyph unicode="&#xea;" horiz-adv-x="1186" d="M66 475q0 280 156 438t433 158q238 0 354.5 -104t116.5 -316q0 -39 -4.5 -89.5t-13.5 -110.5l-623 -1q-1 -5 -1.5 -11t-0.5 -19q0 -87 62 -128.5t194 -41.5q68 0 138 8.5t143 26.5l-43 -271q-98 -21 -189 -32t-174 -11q-266 0 -407 130t-141 374zM360 1182l197 370h238 l196 -370h-141l-174 219l-174 -219h-142zM487 653h269v9q0 84 -30 128t-87 44q-61 0 -101 -47.5t-51 -133.5z" />
<glyph unicode="&#xeb;" horiz-adv-x="1186" d="M66 475q0 280 156 438t433 158q238 0 354.5 -104t116.5 -316q0 -39 -4.5 -89.5t-13.5 -110.5l-623 -1q-1 -5 -1.5 -11t-0.5 -19q0 -87 62 -128.5t194 -41.5q68 0 138 8.5t143 26.5l-43 -271q-98 -21 -189 -32t-174 -11q-266 0 -407 130t-141 374zM389 1241v246h225v-246 h-225zM487 653h269v9q0 84 -30 128t-87 44q-61 0 -101 -47.5t-51 -133.5zM739 1241v246h226v-246h-226z" />
<glyph unicode="&#xec;" horiz-adv-x="606" d="M45 1552h258l197 -370h-140zM70 0q25 237 38 493t13 533h416q-26 -224 -39 -474.5t-13 -551.5h-415z" />
<glyph unicode="&#xed;" horiz-adv-x="606" d="M70 0q25 237 38 493t13 533h416q-26 -224 -39 -474.5t-13 -551.5h-415zM176 1182l197 370h260l-316 -370h-141z" />
<glyph unicode="&#xee;" horiz-adv-x="606" d="M22 1182l197 370h238l196 -370h-141l-174 219l-174 -219h-142zM70 0q25 237 38 493t13 533h416q-26 -224 -39 -474.5t-13 -551.5h-415z" />
<glyph unicode="&#xef;" horiz-adv-x="606" d="M51 1241v246h225v-246h-225zM70 0q25 237 38 493t13 533h416q-26 -224 -39 -474.5t-13 -551.5h-415zM401 1241v246h226v-246h-226z" />
<glyph unicode="&#xf0;" horiz-adv-x="1294" d="M80 473q0 247 145 391t396 144q24 0 48.5 -1.5t48.5 -4.5l-67 124q-26 -5 -75 -16q-165 -35 -224 -49l-49 158q101 20 151 30.5t91 20.5l-82 114l368 43l56 -79q73 13 196 46l11 2l47 -161q-30 -6 -112 -25q-26 -7 -40 -10q114 -183 169.5 -350.5t55.5 -329.5 q0 -253 -152.5 -401t-414.5 -148q-277 0 -422 128.5t-145 373.5zM467 489q0 -125 43 -187t131 -62q90 0 137 65t47 191q0 136 -40.5 196t-131.5 60q-89 0 -137.5 -68.5t-48.5 -194.5z" />
<glyph unicode="&#xf1;" horiz-adv-x="1341" d="M70 0q25 243 38 503t13 539h383v-129q68 85 151 122.5t201 37.5q205 0 298 -80t93 -258q0 -64 -13 -308.5t-17 -426.5h-394q13 161 20 296.5t7 213.5q0 148 -32 203t-111 55q-129 0 -179.5 -143t-54.5 -625h-403zM389 1229q25 122 75 179.5t130 57.5q21 0 43.5 -3.5 t44.5 -10.5l90 -25q13 -4 26.5 -6t29.5 -2q32 0 53.5 21t32.5 63h110q-26 -124 -77 -182.5t-132 -58.5q-21 0 -39 2.5t-35 7.5l-87 24q-28 8 -42 10.5t-24 2.5q-34 0 -55 -19t-33 -61h-111z" />
<glyph unicode="&#xf2;" horiz-adv-x="1294" d="M61 500q0 266 162.5 418.5t444.5 152.5q271 0 418 -137t147 -389q0 -268 -160.5 -421t-441.5 -153q-274 0 -422 137t-148 392zM389 1552h258l197 -370h-140zM465 506q0 -129 43 -190.5t133 -61.5q93 0 140.5 68.5t47.5 201.5q0 144 -41 206.5t-135 62.5t-141 -71.5 t-47 -215.5z" />
<glyph unicode="&#xf3;" horiz-adv-x="1294" d="M61 500q0 266 162.5 418.5t444.5 152.5q271 0 418 -137t147 -389q0 -268 -160.5 -421t-441.5 -153q-274 0 -422 137t-148 392zM465 506q0 -129 43 -190.5t133 -61.5q93 0 140.5 68.5t47.5 201.5q0 144 -41 206.5t-135 62.5t-141 -71.5t-47 -215.5zM520 1182l197 370h260 l-316 -370h-141z" />
<glyph unicode="&#xf4;" horiz-adv-x="1294" d="M61 500q0 266 162.5 418.5t444.5 152.5q271 0 418 -137t147 -389q0 -268 -160.5 -421t-441.5 -153q-274 0 -422 137t-148 392zM366 1182l197 370h238l196 -370h-141l-174 219l-174 -219h-142zM465 506q0 -129 43 -190.5t133 -61.5q93 0 140.5 68.5t47.5 201.5 q0 144 -41 206.5t-135 62.5t-141 -71.5t-47 -215.5z" />
<glyph unicode="&#xf5;" horiz-adv-x="1294" d="M61 500q0 266 162.5 418.5t444.5 152.5q271 0 418 -137t147 -389q0 -268 -160.5 -421t-441.5 -153q-274 0 -422 137t-148 392zM364 1229q25 122 75 179.5t130 57.5q21 0 43.5 -3.5t44.5 -10.5l90 -25q13 -4 26.5 -6t29.5 -2q32 0 53.5 21t32.5 63h110 q-26 -124 -77 -182.5t-132 -58.5q-21 0 -39 2.5t-35 7.5l-87 24q-28 8 -42 10.5t-24 2.5q-34 0 -55 -19t-33 -61h-111zM465 506q0 -129 43 -190.5t133 -61.5q93 0 140.5 68.5t47.5 201.5q0 144 -41 206.5t-135 62.5t-141 -71.5t-47 -215.5z" />
<glyph unicode="&#xf6;" horiz-adv-x="1294" d="M61 500q0 266 162.5 418.5t444.5 152.5q271 0 418 -137t147 -389q0 -268 -160.5 -421t-441.5 -153q-274 0 -422 137t-148 392zM395 1241v246h225v-246h-225zM465 506q0 -129 43 -190.5t133 -61.5q93 0 140.5 68.5t47.5 201.5q0 144 -41 206.5t-135 62.5t-141 -71.5 t-47 -215.5zM745 1241v246h226v-246h-226z" />
<glyph unicode="&#xf7;" horiz-adv-x="1706" d="M254 496v231h1198v-231h-1198zM688 205q0 68 49 117t117 49t116 -48.5t48 -117.5q0 -68 -47.5 -116t-116.5 -48t-117.5 48t-48.5 116zM688 1016q0 68 49 117t117 49q67 0 115.5 -49t48.5 -117t-48.5 -116t-117.5 -48t-116.5 48t-47.5 116z" />
<glyph unicode="&#xf8;" horiz-adv-x="1294" d="M61 496q0 275 165.5 425t471.5 150q29 0 61.5 -3t69.5 -9l58 104h237l-100 -182q104 -69 156.5 -178t52.5 -258q0 -273 -162.5 -423.5t-456.5 -150.5q-34 0 -70 3.5t-71 9.5l-65 -121h-238l106 192q-102 62 -158.5 177.5t-56.5 263.5zM463 506q0 -130 44 -193t134 -63 q94 0 142 69.5t48 204.5q0 145 -41.5 208t-136.5 63q-96 0 -143 -72t-47 -217z" />
<glyph unicode="&#xf9;" horiz-adv-x="1341" d="M94 307q0 64 13.5 309t17.5 426h393q-13 -161 -19.5 -295.5t-6.5 -211.5q0 -150 32 -205.5t111 -55.5q129 0 179 143t54 625h404q-26 -242 -38.5 -502.5t-12.5 -539.5h-383v131q-72 -86 -154 -124t-199 -38q-205 0 -298 80.5t-93 257.5zM414 1552h258l197 -370h-140z" />
<glyph unicode="&#xfa;" horiz-adv-x="1341" d="M94 307q0 64 13.5 309t17.5 426h393q-13 -161 -19.5 -295.5t-6.5 -211.5q0 -150 32 -205.5t111 -55.5q129 0 179 143t54 625h404q-26 -242 -38.5 -502.5t-12.5 -539.5h-383v131q-72 -86 -154 -124t-199 -38q-205 0 -298 80.5t-93 257.5zM545 1182l197 370h260l-316 -370 h-141z" />
<glyph unicode="&#xfb;" horiz-adv-x="1341" d="M94 307q0 64 13.5 309t17.5 426h393q-13 -161 -19.5 -295.5t-6.5 -211.5q0 -150 32 -205.5t111 -55.5q129 0 179 143t54 625h404q-26 -242 -38.5 -502.5t-12.5 -539.5h-383v131q-72 -86 -154 -124t-199 -38q-205 0 -298 80.5t-93 257.5zM391 1182l197 370h238l196 -370 h-141l-174 219l-174 -219h-142z" />
<glyph unicode="&#xfc;" horiz-adv-x="1341" d="M94 307q0 64 13.5 309t17.5 426h393q-13 -161 -19.5 -295.5t-6.5 -211.5q0 -150 32 -205.5t111 -55.5q129 0 179 143t54 625h404q-26 -242 -38.5 -502.5t-12.5 -539.5h-383v131q-72 -86 -154 -124t-199 -38q-205 0 -298 80.5t-93 257.5zM420 1241v246h225v-246h-225z M770 1241v246h226v-246h-226z" />
<glyph unicode="&#xfd;" horiz-adv-x="1143" d="M-43 -174q46 -9 83.5 -13.5t68.5 -5.5q94 0 151.5 45.5t91.5 147.5l-231 672q-27 80 -60.5 171.5t-74.5 198.5h430q15 -66 32.5 -132t36.5 -134l113 -401l102 340q23 77 45 158.5t43 168.5h402l-414 -1042q-107 -270 -232 -365.5t-351 -95.5q-54 0 -107.5 7t-110.5 22z M444 1182l197 370h260l-316 -370h-141z" />
<glyph unicode="&#xfe;" horiz-adv-x="1331" d="M51 -432q32 190 57.5 643.5t43.5 1144.5l411 -1q-9 -74 -13.5 -146.5t-4.5 -141.5h6q71 4 106 4q301 0 454 -132.5t153 -393.5q0 -259 -134 -416.5t-352 -157.5q-96 0 -168 24t-129 75l-10 -213q-4 -84 -6.5 -154t-4.5 -135h-409zM498 526q0 -134 41.5 -196t132.5 -62 q92 0 141 71t49 204q0 127 -50.5 189.5t-154.5 62.5q-38 0 -73.5 -8t-69.5 -23q-8 -42 -12 -102.5t-4 -135.5z" />
<glyph unicode="&#xff;" horiz-adv-x="1143" d="M-43 -174q46 -9 83.5 -13.5t68.5 -5.5q94 0 151.5 45.5t91.5 147.5l-231 672q-27 80 -60.5 171.5t-74.5 198.5h430q15 -66 32.5 -132t36.5 -134l113 -401l102 340q23 77 45 158.5t43 168.5h402l-414 -1042q-107 -270 -232 -365.5t-351 -95.5q-54 0 -107.5 7t-110.5 22z M319 1241v246h225v-246h-225zM669 1241v246h226v-246h-226z" />
<glyph unicode="&#x152;" horiz-adv-x="2138" d="M68 651q0 341 196 527t557 186q39 0 168 -4t219 -4h912l-15 -313q-80 3 -144.5 5.5t-86.5 2.5l-430 -1q-8 -78 -10 -116t-2 -70v-26h352q68 0 122.5 2t100.5 6l-16 -319q-34 3 -72.5 4t-116.5 1h-94h-293q-6 -42 -9 -82t-3 -81q0 -24 0.5 -36.5t1.5 -20.5 q59 -7 128.5 -10t168.5 -3q103 0 197.5 4t177.5 12l-17 -315h-766q-60 0 -216.5 -5t-252.5 -5q-374 0 -565.5 167t-191.5 494zM465 649q0 -190 103.5 -277t330.5 -87q47 0 72 1t47 3q15 321 22.5 481t13.5 295q-58 5 -110.5 7.5t-93.5 2.5q-185 0 -285 -110.5t-100 -315.5z " />
<glyph unicode="&#x153;" horiz-adv-x="1915" d="M68 502q0 268 159.5 418.5t444.5 150.5q123 0 208.5 -27.5t141.5 -85.5q61 59 148 86t214 27q236 0 352.5 -104.5t116.5 -315.5q0 -39 -4.5 -89.5t-13.5 -110.5l-621 -1q-1 -5 -1.5 -11t-0.5 -19q0 -89 61.5 -129.5t194.5 -40.5q63 0 133 8.5t146 26.5l-43 -271 q-99 -21 -186.5 -32t-165.5 -11q-130 0 -218.5 24.5t-152.5 76.5q-60 -50 -155 -75.5t-220 -25.5q-255 0 -396.5 139.5t-141.5 391.5zM455 506q0 -128 45 -190t137 -62q98 0 146 70t48 213q0 133 -43 194.5t-137 61.5q-98 0 -147 -71.5t-49 -215.5zM1212 653h279v17 q0 85 -31.5 128.5t-93.5 43.5q-61 0 -102 -50.5t-52 -138.5z" />
<glyph unicode="&#x178;" horiz-adv-x="1171" d="M-39 1356h471q13 -53 22.5 -84t18.5 -58l123 -348l149 317q10 20 25.5 55t50.5 118h443l-482 -842l-14 -340q0 -5 -1 -22t-1 -29q0 -25 3 -93q1 -20 1 -30h-427q5 72 10 147.5t5 81.5l15 291zM346 1526v246h225v-246h-225zM696 1526v246h226v-246h-226z" />
<glyph unicode="&#x2c6;" horiz-adv-x="1024" d="M231 1182l197 370h238l196 -370h-141l-174 219l-174 -219h-142z" />
<glyph unicode="&#x2dc;" horiz-adv-x="1024" d="M229 1229q25 122 75 179.5t130 57.5q21 0 43.5 -3.5t44.5 -10.5l90 -25q13 -4 26.5 -6t29.5 -2q32 0 53.5 21t32.5 63h110q-26 -124 -77 -182.5t-132 -58.5q-21 0 -39 2.5t-35 7.5l-87 24q-28 8 -42 10.5t-24 2.5q-34 0 -55 -19t-33 -61h-111z" />
<glyph unicode="&#x2000;" horiz-adv-x="977" />
<glyph unicode="&#x2001;" horiz-adv-x="1954" />
<glyph unicode="&#x2002;" horiz-adv-x="977" />
<glyph unicode="&#x2003;" horiz-adv-x="1954" />
<glyph unicode="&#x2004;" horiz-adv-x="651" />
<glyph unicode="&#x2005;" horiz-adv-x="488" />
<glyph unicode="&#x2006;" horiz-adv-x="325" />
<glyph unicode="&#x2007;" horiz-adv-x="325" />
<glyph unicode="&#x2008;" horiz-adv-x="244" />
<glyph unicode="&#x2009;" horiz-adv-x="390" />
<glyph unicode="&#x200a;" horiz-adv-x="108" />
<glyph unicode="&#x2010;" horiz-adv-x="692" d="M106 385l19 303h487l-18 -303h-488z" />
<glyph unicode="&#x2011;" horiz-adv-x="692" d="M106 385l19 303h487l-18 -303h-488z" />
<glyph unicode="&#x2012;" horiz-adv-x="692" d="M106 385l19 303h487l-18 -303h-488z" />
<glyph unicode="&#x2013;" horiz-adv-x="1024" d="M0 397l18 277h1006l-18 -277h-1006z" />
<glyph unicode="&#x2014;" horiz-adv-x="2048" d="M0 397l18 277h2030l-18 -277h-2030z" />
<glyph unicode="&#x2018;" horiz-adv-x="639" d="M113 942l239 414h242l-139 -414h-342z" />
<glyph unicode="&#x2019;" horiz-adv-x="639" d="M147 942l140 414h340l-240 -414h-240z" />
<glyph unicode="&#x201a;" horiz-adv-x="639" d="M53 -207l140 414h339l-239 -414h-240z" />
<glyph unicode="&#x201c;" horiz-adv-x="1128" d="M113 942l239 414h242l-139 -414h-342zM602 942l240 414h239l-139 -414h-340z" />
<glyph unicode="&#x201d;" horiz-adv-x="1128" d="M147 942l140 414h340l-240 -414h-240zM637 942l139 414h340l-239 -414h-240z" />
<glyph unicode="&#x201e;" horiz-adv-x="1128" d="M53 -207l140 414h339l-239 -414h-240zM543 -207l139 414h342l-242 -414h-239z" />
<glyph unicode="&#x2022;" horiz-adv-x="1208" d="M307 762q0 123 87 209t210 86q122 0 208.5 -86.5t86.5 -208.5t-87.5 -209.5t-209.5 -87.5q-123 0 -209 87t-86 210z" />
<glyph unicode="&#x2026;" horiz-adv-x="2048" d="M138 0l20 389h389l-18 -389h-391zM820 0l20 389h389l-18 -389h-391zM1504 0l20 389h389l-18 -389h-391z" />
<glyph unicode="&#x202f;" horiz-adv-x="390" />
<glyph unicode="&#x2039;" horiz-adv-x="524" d="M55 520l195 369h244l-168 -369l141 -366h-240z" />
<glyph unicode="&#x203a;" horiz-adv-x="524" d="M31 154l168 368l-142 367h242l170 -367l-195 -368h-243z" />
<glyph unicode="&#x205f;" horiz-adv-x="488" />
<glyph unicode="&#x2122;" horiz-adv-x="1706" d="M188 1337v127h502v-127h-164v-424h-174v424h-164zM797 913v551h223l113 -303l114 303h221v-551h-155v390l-146 -390h-65l-150 390v-390h-155z" />
<glyph unicode="&#x25fc;" horiz-adv-x="1040" d="M0 0v1040h1040v-1040h-1040z" />
</font>
</defs>
</svg>
